<svg width="398" height="323" viewBox="0 0 398 323" fill="none" xmlns="http://www.w3.org/2000/svg">
<path d="M0.273949 142.258C9.1683 114.231 24.0378 88.4666 43.8563 66.7439C63.6749 45.0213 87.9706 27.8572 115.067 16.4362C142.163 5.01516 171.415 -0.390878 200.803 0.591111C230.192 1.5731 259.017 8.91974 285.291 22.1241C311.564 35.3284 334.66 54.076 352.984 77.0731C371.309 100.07 384.425 126.769 391.429 155.328C398.432 183.887 399.156 213.625 393.55 242.491C387.945 271.356 376.143 298.662 358.959 322.523L282.071 267.153C291.244 254.414 297.545 239.837 300.537 224.427C303.53 209.017 303.143 193.142 299.404 177.896C295.666 162.65 288.663 148.396 278.881 136.119C269.099 123.842 256.769 113.834 242.743 106.785C228.717 99.7354 213.328 95.8134 197.639 95.2892C181.95 94.7649 166.334 97.651 151.869 103.748C137.403 109.845 124.433 119.008 113.853 130.605C103.273 142.202 95.3346 155.956 90.5864 170.918L0.273949 142.258Z" fill="#2A65FA"/>
</svg>
