<svg width="51" height="51" viewBox="0 0 51 51" fill="none" xmlns="http://www.w3.org/2000/svg">
<g clip-path="url(#clip0_60_1544)">
<path d="M0.895027 25.461C0.884743 11.6498 12.0941 0.44043 25.895 0.44043C39.7268 0.44043 50.9053 11.6498 50.895 25.5021C50.8847 39.231 39.6754 50.4301 25.9156 50.4404C12.1147 50.4507 0.90531 39.2619 0.895027 25.461ZM28.4249 22.8695C28.4249 22.5815 28.4249 22.3758 28.4249 22.1805C28.4249 18.5297 28.4351 14.8789 28.4146 11.2282C28.4146 10.7963 28.3529 10.3232 28.1883 9.93241C27.7461 8.83204 26.5429 8.21501 25.4323 8.44125C24.1571 8.70863 23.3652 9.67531 23.3549 11.0636C23.3446 15.8148 23.3446 20.5556 23.3549 25.3067C23.3549 26.9316 24.3936 27.9805 26.0287 27.9908C29.5766 28.0114 33.1246 28.0114 36.6725 27.9805C37.1147 27.9805 37.598 27.8571 37.9991 27.6515C39.0275 27.127 39.5211 25.8621 39.2332 24.7514C38.9452 23.651 37.9477 22.89 36.7548 22.8798C34.2044 22.8695 31.6437 22.8798 29.0933 22.8798C28.8979 22.8695 28.7025 22.8695 28.4249 22.8695Z" fill="#2A66FF"/>
</g>
<defs>
<clipPath id="clip0_60_1544">
<rect width="50" height="50" fill="white" transform="translate(0.89502 0.44043)"/>
</clipPath>
</defs>
</svg>
