<svg width="45" height="45" viewBox="0 0 45 45" fill="none" xmlns="http://www.w3.org/2000/svg">
<g clip-path="url(#clip0_60_1535)">
<path d="M22.536 45.0001C17.0815 45.0001 11.6628 45.0001 6.20829 45.0001C2.0815 45.0001 0.0360446 42.902 0.0360446 38.7782C0.0360446 29.0837 0.1437 19.353 0.000159431 9.65843C-0.0716109 4.19622 3.26571 2.78544 7.6437 2.96631C8.57671 3.00249 9.04322 3.50892 9.07911 4.44943C9.11499 5.24525 9.07911 6.0049 9.15088 6.80072C9.29442 8.6094 10.4069 9.87548 11.9858 9.984C13.493 10.1287 15.0719 8.79027 15.359 7.09011C15.5026 6.25811 15.4667 5.38995 15.4667 4.55795C15.4308 3.50892 15.9691 2.96631 16.9738 2.96631C20.6341 2.96631 24.2585 2.96631 27.9188 2.96631C29.103 2.96631 29.6413 3.58126 29.6413 4.77499C29.6054 5.57081 29.6054 6.33046 29.7131 7.12628C29.8925 8.75409 31.3638 10.0563 32.871 10.0202C34.3423 9.984 35.7059 8.75409 35.9212 7.19863C36.0289 6.43898 36.0289 5.64316 35.993 4.84734C35.9212 3.4004 36.6389 2.96631 37.9308 2.93014C42.7394 2.82162 45.036 4.99204 45.036 9.87548C45.0719 19.3891 45.0719 28.939 45.036 38.4526C45.036 42.902 42.9188 45.0001 38.5408 45.0001C33.1939 45.0362 27.847 45.0001 22.536 45.0001ZM22.4643 22.9342C16.8303 22.9342 11.2322 22.9703 5.59825 22.898C4.34226 22.898 3.7681 23.2597 3.7681 24.6343C3.83987 29.2645 3.7681 33.8948 3.80399 38.5612C3.80399 40.5145 4.44992 41.1657 6.4236 41.1657C17.1174 41.2018 27.8112 41.2018 38.5049 41.1657C40.5145 41.1657 40.9451 40.6954 40.9451 38.7059C40.981 34.1118 40.9092 29.5539 40.981 24.9599C41.0169 23.3682 40.5145 22.8618 38.9356 22.898C33.481 23.0065 27.9547 22.9342 22.4643 22.9342Z" fill="#2A65FA"/>
<path d="M13.816 4.08767C13.816 4.88349 13.8878 5.64314 13.816 6.43896C13.7083 7.45182 13.0983 8.06677 12.0576 8.10294C11.0169 8.13912 10.2634 7.52417 10.1916 6.54748C10.0839 4.95584 10.0839 3.29185 10.1916 1.70021C10.2634 0.615003 11.0169 -0.0361228 12.1653 0.0362245C13.2059 0.108572 13.7801 0.759697 13.8878 1.77256C13.8878 2.5322 13.8519 3.29185 13.816 4.08767C13.8519 4.08767 13.8519 4.08767 13.816 4.08767Z" fill="#2A65FA"/>
<path d="M34.6292 4.15979C34.6292 4.95561 34.701 5.71525 34.6292 6.51107C34.5215 7.45159 33.9115 8.03037 32.9426 8.10271C31.9019 8.17506 31.1483 7.63246 31.0048 6.61959C30.7895 4.95561 30.7536 3.25545 31.0048 1.59146C31.1483 0.614771 31.9019 -0.000181012 32.9426 0.0721663C33.9833 0.144514 34.5574 0.831813 34.6292 1.84467C34.701 2.60432 34.6651 3.36397 34.6292 4.15979C34.6651 4.15979 34.6292 4.15979 34.6292 4.15979Z" fill="#2A65FA"/>
</g>
<defs>
<clipPath id="clip0_60_1535">
<rect width="45" height="45" fill="white"/>
</clipPath>
</defs>
</svg>
