<svg width="53" height="53" viewBox="0 0 53 53" fill="none" xmlns="http://www.w3.org/2000/svg">
<g clip-path="url(#clip0_60_1539)">
<path d="M6.36598 41.2856C6.36598 40.417 6.35357 39.5483 6.37839 38.6797C6.3908 38.2702 6.22948 38.0468 5.88202 37.8483C4.40532 37.0169 2.94102 36.1606 1.47673 35.3044C-0.0123831 34.4233 -0.40948 32.8598 0.44676 31.3582C1.29059 29.8939 2.13442 28.4172 3.00307 26.9529C3.20162 26.6303 3.18921 26.3697 3.00307 26.0471C2.13442 24.5828 1.303 23.1185 0.44676 21.6418C-0.421889 20.1402 -0.0247924 18.5767 1.47673 17.6956C2.9038 16.8518 4.33086 16.0204 5.77034 15.2138C6.20466 14.9656 6.37839 14.6926 6.37839 14.1962C6.35357 12.6078 6.36598 11.007 6.36598 9.41864C6.36598 7.44556 7.458 6.36596 9.45589 6.36596C11.0691 6.36596 12.6823 6.35355 14.2955 6.37837C14.7298 6.37837 14.9656 6.22945 15.1766 5.85718C15.9956 4.39288 16.8394 2.95341 17.6956 1.51393C18.6015 -0.0124093 20.1527 -0.409506 21.679 0.471552C23.1309 1.30297 24.5828 2.13439 26.0223 2.99063C26.3697 3.20159 26.6303 3.214 26.9778 3.00304C28.4173 2.1468 29.8691 1.31538 31.321 0.483962C32.8598 -0.409506 34.4109 -0.0124093 35.3168 1.51393C36.1482 2.91618 36.9797 4.33084 37.7614 5.7579C38.0344 6.25427 38.3571 6.40318 38.8907 6.39077C40.4791 6.35355 42.0799 6.37837 43.6683 6.37837C45.5172 6.39077 46.6341 7.50761 46.6341 9.369C46.6341 11.0194 46.6465 12.6823 46.6217 14.3327C46.6217 14.7422 46.7582 14.978 47.1056 15.1765C48.5575 15.9956 50.0094 16.8394 51.4613 17.6832C53.0248 18.6015 53.4219 20.1402 52.5161 21.7162C51.6846 23.1681 50.8532 24.62 49.997 26.0595C49.7984 26.3821 49.7984 26.6303 49.997 26.9653C50.8532 28.4048 51.6846 29.8567 52.5161 31.3086C53.4219 32.8846 53.0248 34.4233 51.4737 35.3416C50.0714 36.173 48.6568 36.992 47.2297 37.7862C46.7954 38.022 46.6217 38.3074 46.6341 38.8162C46.6713 40.3674 46.6465 41.9185 46.6465 43.4697C46.6465 45.6041 45.5917 46.6465 43.4325 46.6465C41.8813 46.6465 40.3302 46.6713 38.779 46.634C38.295 46.6216 38.0344 46.7954 37.7987 47.2049C36.9921 48.6443 36.1606 50.0838 35.3168 51.5109C34.4233 53.0372 32.8598 53.4343 31.321 52.5409C29.8567 51.697 28.38 50.8532 26.9157 49.9845C26.6055 49.7984 26.3697 49.8108 26.0719 49.9845C24.6076 50.8408 23.1433 51.6846 21.6666 52.5284C20.1279 53.4095 18.5767 53.0124 17.6708 51.4861C16.8146 50.0466 15.9708 48.5947 15.1517 47.1428C14.9408 46.7705 14.6926 46.6216 14.2707 46.634C12.6203 46.6589 10.9574 46.6465 9.30698 46.6465C7.48282 46.634 6.36598 45.5296 6.35357 43.7179C6.36598 42.8988 6.36598 42.0922 6.36598 41.2856ZM20.5994 38.4439C20.8228 38.4067 20.8972 38.2454 20.9841 38.1213C26.0347 31.3955 31.0728 24.6572 36.1358 17.9438C36.3964 17.5963 36.3592 17.3978 36.0241 17.1496C35.0066 16.4051 34.0014 15.6481 32.9963 14.8911C32.351 14.4072 32.351 14.4072 31.8546 15.0649C28.8268 19.0979 25.7989 23.1309 22.7834 27.1639C20.8352 29.7574 18.8869 32.351 16.9387 34.9445C16.7401 35.2175 16.4919 35.4533 16.9263 35.7635C18.0679 36.5825 19.1848 37.4388 20.314 38.2826C20.4009 38.3446 20.5126 38.3943 20.5994 38.4439ZM29.2487 35.7139C29.2487 37.9103 30.9363 39.6228 33.1204 39.6228C35.292 39.6228 37.0169 37.9103 37.0169 35.7263C37.0169 33.5919 35.3044 31.867 33.1576 31.8546C30.9488 31.8546 29.2487 33.5174 29.2487 35.7139ZM23.7514 17.2117C23.7514 15.0028 22.0885 13.34 19.8673 13.34C17.7081 13.34 15.9956 15.04 15.9832 17.1744C15.9708 19.3461 17.7081 21.1082 19.8549 21.1206C22.0141 21.133 23.7514 19.3957 23.7514 17.2117Z" fill="#2A65FA"/>
</g>
<defs>
<clipPath id="clip0_60_1539">
<rect width="53" height="53" fill="white"/>
</clipPath>
</defs>
</svg>
