<svg width="52" height="52" viewBox="0 0 52 52" fill="none" xmlns="http://www.w3.org/2000/svg">
<g clip-path="url(#clip0_60_1541)">
<path d="M25.7369 46.8048C21.5271 46.8048 17.2696 46.8529 13.0598 46.8048C11.4811 46.7567 10.8114 47.2377 10.7157 48.9695C10.6201 51.2303 9.18491 52.1443 6.50598 52.0481C4.0184 51.9038 2.87029 50.9417 2.87029 48.5846C2.87029 47.0934 2.63109 45.7946 1.43514 44.6882C0.908924 44.2072 0.526219 43.3413 0.430543 42.5717C-0.143514 39.1563 -0.143514 35.741 0.430543 32.3256C0.526219 31.7003 0.765409 30.9306 1.19595 30.5939C4.25759 28.2368 4.54462 24.5328 5.78841 21.3099C6.21895 20.2035 6.50598 19.0009 6.98436 17.8945C8.32383 14.7197 10.8114 12.8917 14.2079 12.8436C22.0055 12.7474 29.851 12.7474 37.6486 12.8436C41.2843 12.8917 43.8197 14.8159 45.0635 18.2793C45.9246 20.5402 46.5943 22.8492 47.3597 25.1101C47.9338 26.938 48.4121 28.814 50.23 29.9204C50.5649 30.1128 50.7562 30.5458 50.9476 30.8825C52.7176 33.913 52.1435 42.716 49.8951 45.3136C49.034 46.3237 49.1776 47.382 49.1297 48.4403C48.9862 50.8455 47.9816 51.8076 45.494 51.9038C42.6716 52.0481 41.3321 51.1341 41.1886 48.6808C41.0929 46.9972 40.3753 46.6124 38.9402 46.7086C38.8445 46.7086 38.7967 46.7086 38.701 46.7086C34.3477 46.8048 30.0423 46.8048 25.7369 46.8048ZM25.8326 28.2368C30.6642 28.2368 35.5437 28.1887 40.3753 28.2368C41.9062 28.2368 42.4324 27.8039 41.8105 26.2645C41.1886 24.629 40.6145 22.9454 40.1362 21.2618C39.5143 19.1933 38.1748 18.3275 36.0699 18.3756C30.8077 18.4237 25.5455 18.3756 20.3312 18.4237C11.7682 18.4718 13.0598 17.4135 10.2374 25.8316C10.1895 25.9759 10.1417 26.1202 10.0938 26.2645C9.4241 27.8039 9.99816 28.2368 11.529 28.1887C16.3128 28.2368 21.0488 28.2368 25.8326 28.2368ZM12.8684 37.4727C12.8206 35.6448 11.1941 33.913 9.37627 33.913C7.4149 33.913 5.83625 35.5966 5.93192 37.6651C5.97976 39.5892 7.60626 41.1767 9.47194 41.1286C11.2898 41.0324 12.9163 39.3487 12.8684 37.4727ZM39.0359 37.3284C38.9402 39.3006 40.5667 41.0324 42.5281 41.0805C44.2981 41.1286 45.8289 39.6374 45.9246 37.7613C46.0681 35.6929 44.5851 33.9611 42.6237 33.8649C40.8537 33.8649 39.1316 35.5004 39.0359 37.3284Z" fill="#2A65FA"/>
<path d="M38.6532 10.7271C37.6008 10.7752 36.4527 10.5828 35.7829 9.81314C34.3478 8.22572 32.6256 8.27382 30.7599 8.27382C27.7461 8.32193 24.7323 8.32193 21.6707 8.27382C19.6137 8.27382 17.7001 8.27382 15.9301 9.90934C14.3993 11.3525 11.529 10.9676 9.95036 9.66883C9.51981 9.3321 8.99359 8.94727 9.08927 8.32193C9.23279 7.64847 9.95036 7.64847 10.4766 7.69658C12.3423 7.84089 12.9642 7.07123 12.9642 5.19519C12.9642 3.17484 11.9117 2.98242 10.3809 3.07863C9.95036 3.07863 9.32846 3.22294 9.18495 2.5976C9.04143 2.06846 9.47198 1.73173 9.80684 1.39501C11.5769 -0.288621 14.4471 -0.432932 16.552 1.44311C17.748 2.50139 18.9439 2.79001 20.4269 2.79001C23.2972 2.74191 26.1675 2.79001 29.0378 2.79001C31.5253 2.79001 33.9651 3.03053 36.1656 0.962073C37.7921 -0.577243 40.6146 5.32717e-07 42.0976 1.44311C42.4324 1.77983 42.9108 2.06846 42.7194 2.6457C42.5281 3.22294 41.954 3.12674 41.5235 3.12674C39.9927 3.03053 38.9402 3.22294 38.9402 5.24329C38.9402 7.11933 39.5621 7.9371 41.4278 7.74468C41.954 7.69658 42.6716 7.69658 42.8151 8.37003C42.9586 8.99538 42.4324 9.38021 41.954 9.71693C40.9973 10.4385 39.897 10.8233 38.6532 10.7271Z" fill="#2A65FA"/>
</g>
<defs>
<clipPath id="clip0_60_1541">
<rect width="52" height="52" fill="white"/>
</clipPath>
</defs>
</svg>
