<svg width="86" height="66" viewBox="0 0 86 66" fill="none" xmlns="http://www.w3.org/2000/svg">
<g clip-path="url(#clip0_60_1465)">
<path d="M30.1961 11.8078C30.7331 13.0453 31.2528 14.1281 31.6685 15.2453C31.7378 15.4516 31.478 15.8469 31.2701 16.0531C28.3253 19.0094 25.3632 21.9312 22.4011 24.8703C22.2106 25.0594 22.02 25.2828 21.7429 25.575C35.9644 25.575 50.0647 25.575 64.3208 25.575C64.0437 25.2828 63.8531 25.0766 63.6453 24.8703C60.7005 21.9484 57.773 19.0266 54.811 16.1219C54.3606 15.675 54.222 15.3656 54.5511 14.7469C55.0361 13.8531 55.3479 12.8734 55.781 11.7906C56.3353 12.375 56.8377 12.925 57.3573 13.4406C61.2375 17.2906 65.1177 21.1234 68.9805 24.9906C69.4482 25.4547 69.9159 25.6266 70.5742 25.6266C72.826 25.6266 75.0952 25.5406 77.3298 25.7297C81.8509 26.125 85.4019 29.8891 85.4539 34.4094C85.5405 41.9375 85.5405 49.4828 85.4539 57.0109C85.4019 62.0469 81.3486 65.9141 76.2558 65.9484C69.6388 65.9828 63.039 65.9656 56.4219 65.9656C40.9532 65.9656 25.4845 65.9656 9.99844 65.9656C5.21751 65.9656 1.4586 62.8891 0.627131 58.3172C0.523198 57.75 0.505876 57.1828 0.505876 56.5984C0.505876 49.4141 0.471232 42.2125 0.505876 35.0281C0.523198 30.4047 3.39868 26.7781 7.81584 25.8672C9.04572 25.6094 10.3449 25.6609 11.6094 25.6266C13.1857 25.575 14.9526 26.0047 16.321 25.4375C17.6548 24.9047 18.5902 23.3922 19.6989 22.3094C22.9901 19.0437 26.2813 15.7953 29.5552 12.5297C29.7977 12.3406 29.9882 12.0828 30.1961 11.8078ZM32.8291 47.9016C32.8637 47.8156 32.9157 47.7297 32.9503 47.6437C33.3141 47.6437 33.6779 47.6609 34.059 47.6437C37.7313 47.5062 40.8493 44.6187 41.1091 41.0953C41.4036 37.1594 38.9092 33.7219 35.1156 33.2062C32.9677 32.9141 30.7504 33.0516 28.5505 33.0172C27.0608 33 26.3679 33.6875 26.3679 35.1656C26.3679 42.2984 26.3679 49.4141 26.3679 56.5469C26.3679 57.8531 27.0954 58.6609 28.2387 58.6437C29.3473 58.6266 30.0402 57.8703 30.0402 56.5812C30.0575 54.7422 30.0402 52.9203 30.0402 51.0812C30.0402 50.875 30.0922 50.6859 30.1095 50.4797C30.1961 50.4281 30.2827 50.3766 30.3693 50.3422C30.5252 50.5828 30.6638 50.8406 30.8717 51.0469C33.1929 53.3672 35.514 55.6703 37.8525 57.9734C38.7186 58.8328 39.8619 58.8672 40.6241 58.1281C41.3689 57.3719 41.317 56.2547 40.4509 55.3781C38.8572 53.7625 37.2289 52.1641 35.618 50.5828C34.6999 49.6719 33.7645 48.7781 32.8291 47.9016ZM67.0924 47.6437C67.5254 47.6437 67.8372 47.6437 68.149 47.6437C69.6214 47.6437 71.0938 47.6609 72.5662 47.6266C73.8307 47.5922 74.6102 46.6125 74.3677 45.4437C74.1945 44.5672 73.4496 44 72.393 44C70.6434 43.9828 68.8939 44 67.1097 44C67.1097 41.525 67.1097 39.1359 67.1097 36.6437C67.4735 36.6437 67.7853 36.6437 68.0971 36.6437C70.7474 36.6437 73.415 36.6437 76.0653 36.6437C76.966 36.6437 77.6416 36.3172 77.9881 35.475C78.4904 34.2203 77.5723 33 76.1172 33C72.7048 32.9828 69.3096 33 65.8972 33C63.9051 33 63.3335 33.5672 63.3335 35.5609C63.3335 42.4703 63.3335 49.3625 63.3335 56.2719C63.3335 56.4953 63.3335 56.7359 63.3508 56.9594C63.4894 57.9906 64.1476 58.6266 65.2043 58.6437C68.8939 58.6609 72.6008 58.6609 76.2905 58.6437C77.1393 58.6437 77.7282 58.2141 78.0054 57.4406C78.4557 56.2031 77.5723 55.0172 76.1519 55.0172C73.4323 55 70.73 55.0172 68.0105 55.0172C67.6987 55.0172 67.4042 55.0172 67.0924 55.0172C67.0924 52.5078 67.0924 50.1359 67.0924 47.6437ZM48.5923 36.6437C49.008 36.6437 49.3198 36.6437 49.6316 36.6437C52.2819 36.6437 54.9322 36.6609 57.5998 36.6437C58.847 36.6437 59.6612 35.8875 59.6438 34.8047C59.6265 33.7734 58.8124 33 57.6345 33C54.0315 32.9828 50.4284 32.9828 46.8081 33C45.6302 33 44.8853 33.7047 44.8853 34.8734C44.868 42.1781 44.868 49.4656 44.8853 56.7703C44.8853 57.9562 45.5955 58.6266 46.7908 58.6437C50.4284 58.6609 54.0661 58.6609 57.7038 58.6437C58.8643 58.6437 59.6785 57.8359 59.6438 56.7875C59.6265 55.7391 58.8124 55 57.6171 55C54.9322 54.9828 52.2473 55 49.5623 55C49.2505 55 48.9387 55 48.6096 55C48.6096 52.525 48.6096 50.1359 48.6096 47.6437C48.9561 47.6437 49.2679 47.6437 49.5797 47.6437C51.104 47.6437 52.6457 47.6609 54.17 47.6266C55.192 47.5922 55.9196 46.8359 55.9542 45.8734C55.9889 44.8937 55.244 44.0516 54.2047 44C53.252 43.9484 52.2992 43.9828 51.3465 43.9828C50.4284 43.9828 49.5277 43.9828 48.6096 43.9828C48.5923 41.5078 48.5923 39.1359 48.5923 36.6437ZM11.6787 44C11.6787 41.5078 11.6787 39.1187 11.6787 36.6437C12.0425 36.6437 12.3543 36.6437 12.6661 36.6437C15.2297 36.6437 17.8107 36.6437 20.3744 36.6437C20.7382 36.6437 21.1366 36.6437 21.4831 36.5234C22.2972 36.2656 22.7995 35.3719 22.661 34.5469C22.4877 33.5844 21.7775 33 20.6862 33C17.1005 32.9828 13.5322 32.9828 9.94647 33C8.61266 33 7.90245 33.7391 7.90245 35.1312C7.88513 42.2641 7.88513 49.3969 7.90245 56.5297C7.90245 57.8531 8.64731 58.6437 9.77325 58.6437C10.8992 58.6437 11.6094 57.8359 11.6267 56.5125C11.644 53.9 11.6267 51.3047 11.6267 48.6922C11.6267 48.3828 11.6267 48.0734 11.6267 47.6609C11.9905 47.6609 12.2676 47.6609 12.5621 47.6609C13.9825 47.6609 15.3856 47.6781 16.8061 47.6609C17.1698 47.6609 17.5682 47.6266 17.8974 47.5062C18.7115 47.1969 19.1272 46.3547 18.954 45.4609C18.7981 44.6531 18.0706 44.0344 17.1352 44.0344C15.3337 43.9828 13.5495 44 11.6787 44Z" fill="#8CEAFF"/>
<path d="M52.2473 9.67656C52.1087 14.1797 48.0033 18.7172 42.3909 18.2875C37.3329 17.8922 33.4527 13.5266 33.7472 8.88594C34.0936 3.42031 38.6493 -0.360938 43.7594 0.0343747C48.7135 0.4125 52.663 4.89844 52.2473 9.67656Z" fill="#8CEAFF"/>
<path d="M30.144 36.7469C31.6338 36.7469 33.0715 36.6094 34.4919 36.7813C36.3281 37.0047 37.5579 38.6891 37.4713 40.5281C37.3847 42.3328 35.9297 43.8625 34.1108 43.9656C32.8117 44.0344 31.5125 43.9828 30.144 43.9828C30.144 41.5766 30.144 39.1875 30.144 36.7469Z" fill="#8CEAFF"/>
</g>
<defs>
<clipPath id="clip0_60_1465">
<rect width="85" height="66" fill="white" transform="translate(0.523193)"/>
</clipPath>
</defs>
</svg>
