<svg width="23" height="17" viewBox="0 0 23 17" fill="none" xmlns="http://www.w3.org/2000/svg">
<g clip-path="url(#clip0_85_711)">
<path d="M11.5 0C14.0566 0 16.6131 0 19.1697 0C21.2867 0 23 1.69205 23 3.7817C23 6.92723 23 10.0683 23 13.2139C23 15.3035 21.2867 16.9956 19.1697 16.9956C14.0566 16.9956 8.94345 16.9956 3.83034 16.9956C1.71334 16.9956 0 15.308 0 13.2139C0 10.0728 0 6.92723 0 3.7817C0 1.69205 1.71334 0 3.83034 0C6.3869 0 8.94345 0 11.5 0ZM11.4417 10.921C12.1548 10.921 12.7469 10.7045 13.2941 10.3423C15.2676 9.03898 17.241 7.73571 19.21 6.43243C19.681 6.11876 20.1564 5.81835 20.6229 5.49584C20.9772 5.25286 21.0893 4.89501 21.0131 4.48415C20.9503 4.14397 20.6812 3.91424 20.291 3.85239C20.0084 3.80821 19.7662 3.91866 19.5374 4.06887C17.093 5.68581 14.6486 7.29834 12.2042 8.91528C11.7422 9.22011 11.343 9.22011 10.89 8.9197C8.45905 7.31159 6.02808 5.70348 3.59263 4.09979C3.47601 4.02027 3.35491 3.94958 3.22036 3.90099C2.75839 3.75078 2.28296 3.90541 2.09009 4.27209C1.85686 4.71388 1.99142 5.24402 2.40854 5.52235C4.8709 7.15255 7.33327 8.77833 9.80012 10.4041C10.3114 10.7354 10.8721 10.9166 11.4417 10.921Z" fill="#FFF100"/>
</g>
<defs>
<clipPath id="clip0_85_711">
<rect width="23" height="17" fill="white"/>
</clipPath>
</defs>
</svg>
