<svg width="46" height="51" viewBox="0 0 46 51" fill="none" xmlns="http://www.w3.org/2000/svg">
<g clip-path="url(#clip0_85_699)">
<path d="M31.4953 -1.41317e-06C33.7448 -1.41317e-06 35.9825 -1.41317e-06 38.2319 -1.41317e-06C42.2738 0.0119592 45.2496 3.06191 45.2496 7.17636C45.2496 11.2669 45.2496 15.3454 45.2496 19.436C45.2496 21.864 44.406 23.9332 42.7073 25.6435C37.0134 31.3607 31.3313 37.0898 25.6375 42.795C23.1889 45.247 19.8148 45.235 17.3896 42.7711C12.2933 37.6041 7.2087 32.4252 2.11237 27.2462C-0.383072 24.7106 -0.371356 21.1942 2.15923 18.7183C7.75934 13.2523 13.3829 7.79831 18.9947 2.33232C20.5997 0.765477 22.5211 -0.011962 24.7588 -1.41317e-06C27.0082 0.0119592 29.2459 -1.41317e-06 31.4953 -1.41317e-06ZM36.5097 11.4941C36.5214 9.72397 35.1506 8.27673 33.4402 8.26477C31.7062 8.25281 30.2886 9.6522 30.2652 11.3985C30.2418 13.2045 31.6125 14.6398 33.3699 14.6517C35.1155 14.6517 36.4862 13.2763 36.5097 11.4941Z" fill="#1877F2"/>
</g>
<defs>
<clipPath id="clip0_85_699">
<rect width="45" height="51" fill="white" transform="translate(0.261719)"/>
</clipPath>
</defs>
</svg>
