<svg width="49" height="41" viewBox="0 0 49 41" fill="none" xmlns="http://www.w3.org/2000/svg">
<rect width="49" height="41" fill="#F5F5F5"/>
<path d="M25.7181 22.7667H23.4615C23.0301 22.7667 22.6982 23.1 22.6982 23.5333C22.6982 23.9667 23.0301 24.3 23.4615 24.3H25.7181C26.1495 24.3 26.4813 23.9667 26.4813 23.5333C26.4481 23.1333 26.1163 22.7667 25.7181 22.7667Z" fill="#2A66FF"/>
<path d="M20.4088 23.5333C19.9774 23.5333 19.6455 23.8667 19.6455 24.3V28.8667C19.6455 29.3 19.9774 29.6333 20.4088 29.6333C20.8402 29.6333 21.172 29.3 21.172 28.8667V24.3C21.172 23.8667 20.8402 23.5333 20.4088 23.5333Z" fill="#2A66FF"/>
<path d="M39.3241 10.6333C42.2444 10.6333 44.6005 8.23333 44.6005 5.33333C44.6005 2.4 42.2112 0 39.3241 0C36.4038 0 34.0477 2.4 34.0477 5.33333C34.0145 8.23333 36.4038 10.6333 39.3241 10.6333ZM39.3241 1.53333C41.4148 1.53333 43.1072 3.23333 43.1072 5.33333C43.1072 7.43333 41.4148 9.13333 39.3241 9.13333C37.2335 9.13333 35.541 7.43333 35.541 5.33333C35.541 3.23333 37.2335 1.53333 39.3241 1.53333Z" fill="#2A66FF"/>
<path d="M40.0542 11.4H37.0343C34.9437 11.4 32.9526 12.2 31.4261 13.6L30.9283 12.5667C30.7956 12.3 30.5301 12.1333 30.2646 12.1333H27.2116C26.9461 12.1333 26.7138 12.2667 26.5811 12.4667C26.4484 12.6667 26.4152 12.9333 26.5147 13.1667L29.1363 19.7333H22.433L21.1056 16.4C21.006 16.1 20.7074 15.9333 20.4087 15.9333H18.1521C17.7207 15.9333 17.3889 16.2667 17.3889 16.7V19.7333H13.3735L12.0461 16.4C11.9466 16.1 11.6479 15.9333 11.3492 15.9333H9.09266C8.66126 15.9333 8.32941 16.2667 8.32941 16.7H6.07283C4.81181 16.7 3.81626 17.7333 3.81626 18.9667V20.5C2.55524 20.5 1.55969 21.5333 1.55969 22.7667V27C0.564143 27.8333 0 29.0667 0 30.3667V35.6667C0 36.1 0.331849 36.4333 0.763252 36.4333H3.91582C4.44678 39.0333 6.73653 41 9.45769 41C12.1457 41 14.4686 39.0667 14.9996 36.4333H29.6009C30.1319 39.0333 32.4216 41 35.1428 41C37.8308 41 40.1537 39.0667 40.6847 36.4333H46.127C47.388 36.4333 48.3836 35.4 48.3836 34.1667V31.1333C48.3836 30.9667 48.3504 30.8333 48.3172 30.6667C48.3504 30.5667 48.3836 30.4667 48.3836 30.3667V19.7333C48.3836 15.1333 44.6669 11.4 40.0542 11.4ZM28.3399 13.6667H29.7668L32.7203 19.6L32.7867 19.7333H30.7292L28.3399 13.6667ZM18.8822 17.4667H19.8777L20.7737 19.7333H18.8822V17.4667ZM9.82273 17.4667H10.8183L11.7143 19.7333H9.82273V17.4667V17.4667ZM5.2764 19C5.2764 18.5667 5.60825 18.2333 6.03965 18.2333H8.29622V19.7667H5.2764V19ZM3.01983 22.7667C3.01983 22.3333 3.35167 22 3.78308 22V26.5667H3.01983V22.7667ZM13.6058 35.6333C13.4399 37.8 11.6147 39.4667 9.45769 39.4667C7.30068 39.4667 5.47551 37.7667 5.30958 35.6C5.30958 35.5 5.30958 35.4 5.30958 35.3C5.30958 33 7.16794 31.1333 9.45769 31.1333C11.7475 31.1333 13.6058 33 13.6058 35.3C13.6058 35.4 13.6058 35.5 13.6058 35.6333ZM39.2909 35.6333C39.125 37.8 37.2998 39.4667 35.1428 39.4667C32.9858 39.4667 31.1606 37.7667 30.9947 35.6C30.9947 35.5 30.9947 35.4 30.9947 35.3C30.9947 33 32.853 31.1333 35.1428 31.1333C37.4326 31.1333 39.2909 33 39.2909 35.3C39.3241 35.4 39.2909 35.5 39.2909 35.6333ZM43.074 29.6V34.9H40.8174C40.8174 34.8667 40.8174 34.8333 40.8174 34.8C40.8174 34.7 40.7842 34.6333 40.7842 34.5333C40.7842 34.4333 40.751 34.3333 40.751 34.2333C40.7179 34.1333 40.7179 34.0667 40.6847 33.9667C40.6515 33.8667 40.6515 33.7667 40.6183 33.7C40.5851 33.6 40.5519 33.5333 40.5519 33.4667C40.5187 33.3667 40.4856 33.3 40.4524 33.2C40.4192 33.1333 40.386 33.0333 40.3528 32.9667C40.3196 32.8667 40.2865 32.8 40.2201 32.7C40.1869 32.6333 40.1537 32.5333 40.0873 32.4667C40.0542 32.3667 39.9878 32.3 39.9546 32.2333C39.9214 32.1667 39.8551 32.1 39.8219 32.0333C39.7555 31.9667 39.7223 31.8667 39.6559 31.8C39.5896 31.7333 39.5564 31.6667 39.49 31.6C39.4236 31.5333 39.3573 31.4667 39.2909 31.4C39.2245 31.3333 39.1914 31.2667 39.125 31.2333C39.0586 31.1667 38.9922 31.1 38.9259 31.0333C38.8595 30.9667 38.7931 30.9333 38.7268 30.8667C38.6604 30.8 38.5608 30.7333 38.4945 30.7C38.4281 30.6667 38.3617 30.6 38.2954 30.5667C38.229 30.5 38.1294 30.4667 38.0299 30.4C37.9635 30.3667 37.8971 30.3 37.8308 30.2667C37.7312 30.2333 37.6648 30.1667 37.5653 30.1333C37.4989 30.1 37.4326 30.0667 37.333 30.0333C37.2334 30 37.1339 29.9667 37.0343 29.9333C36.968 29.9 36.9016 29.8667 36.802 29.8667C36.7025 29.8333 36.6029 29.8 36.4702 29.8C36.4038 29.7667 36.3375 29.7667 36.2379 29.7333C36.1052 29.7 36.0056 29.7 35.8729 29.6667C35.8065 29.6667 35.7401 29.6333 35.7069 29.6333C35.5078 29.6 35.3419 29.6 35.1428 29.6C34.9437 29.6 34.7778 29.6 34.5787 29.6333C34.5123 29.6333 34.4459 29.6667 34.4127 29.6667C34.28 29.7 34.1473 29.7 34.0477 29.7333C33.9813 29.7333 33.915 29.7667 33.8154 29.8C33.7158 29.8333 33.6163 29.8333 33.4836 29.8667C33.4172 29.9 33.3508 29.9333 33.2513 29.9333C33.1517 29.9667 33.0522 30 32.9526 30.0333C32.8862 30.0667 32.8199 30.1 32.7203 30.1333C32.6207 30.1667 32.5544 30.2 32.4548 30.2667C32.3885 30.3 32.3221 30.3333 32.2557 30.4C32.1562 30.4333 32.0898 30.5 31.9902 30.5667C31.9239 30.6 31.8575 30.6667 31.7911 30.7C31.7248 30.7667 31.6252 30.8 31.5588 30.8667C31.4925 30.9333 31.4261 30.9667 31.3597 31.0333C31.2934 31.1 31.227 31.1667 31.1606 31.2333C31.0942 31.3 31.0279 31.3667 30.9947 31.4C30.9283 31.4667 30.8619 31.5333 30.7956 31.6C30.7292 31.6667 30.696 31.7333 30.6297 31.8C30.5633 31.8667 30.4969 31.9667 30.4637 32.0333C30.4305 32.1 30.3642 32.1667 30.331 32.2333C30.2646 32.3 30.2314 32.4 30.1982 32.4667C30.1651 32.5333 30.1319 32.6 30.0655 32.7C30.0323 32.8 29.966 32.8667 29.9328 32.9667C29.8996 33.0333 29.8664 33.1333 29.8332 33.2C29.8 33.3 29.7668 33.3667 29.7337 33.4667C29.7005 33.5333 29.6673 33.6333 29.6673 33.7C29.6341 33.8 29.6009 33.9 29.6009 33.9667C29.5677 34.0667 29.5677 34.1333 29.5346 34.2333C29.5014 34.3333 29.5014 34.4333 29.5014 34.5333C29.5014 34.6333 29.4682 34.7 29.4682 34.8C29.4682 34.8333 29.4682 34.8667 29.4682 34.9H15.0991C15.0991 34.8667 15.0991 34.8333 15.0991 34.8C15.0991 34.7 15.0659 34.6333 15.0659 34.5333C15.0659 34.4333 15.0328 34.3333 15.0328 34.2333C14.9996 34.1333 14.9996 34.0667 14.9664 33.9667C14.9332 33.8667 14.9332 33.7667 14.9 33.7C14.8668 33.6 14.8336 33.5333 14.8336 33.4667C14.8005 33.3667 14.7673 33.3 14.7341 33.2C14.7009 33.1333 14.6677 33.0333 14.6345 32.9667C14.6014 32.8667 14.5682 32.8 14.5018 32.7C14.4686 32.6333 14.4354 32.5333 14.3691 32.4667C14.3359 32.3667 14.2695 32.3 14.2363 32.2333C14.2031 32.1667 14.1368 32.1 14.1036 32.0333C14.0372 31.9667 14.004 31.8667 13.9377 31.8C13.8713 31.7333 13.8381 31.6667 13.7717 31.6C13.7054 31.5333 13.639 31.4667 13.5726 31.4C13.5063 31.3333 13.4731 31.2667 13.4067 31.2333C13.3403 31.1667 13.274 31.1 13.2076 31.0333C13.1412 30.9667 13.0748 30.9333 13.0085 30.8667C12.9421 30.8 12.8426 30.7333 12.7762 30.7C12.7098 30.6667 12.6434 30.6 12.5771 30.5667C12.5107 30.5 12.4111 30.4667 12.3116 30.4C12.2452 30.3667 12.1789 30.3 12.1125 30.2667C12.0129 30.2333 11.9466 30.1667 11.847 30.1333C11.7806 30.1 11.7143 30.0667 11.6147 30.0333C11.5152 30 11.4156 29.9667 11.316 29.9333C11.2497 29.9 11.1833 29.8667 11.0838 29.8667C10.9842 29.8333 10.8846 29.8 10.7519 29.8C10.6855 29.7667 10.6192 29.7667 10.5196 29.7333C10.3869 29.7 10.2873 29.7 10.1546 29.6667C10.0882 29.6667 10.0218 29.6333 9.98865 29.6333C9.78954 29.6 9.62362 29.6 9.42451 29.6C9.2254 29.6 9.05947 29.6 8.86037 29.6333C8.794 29.6333 8.72763 29.6667 8.69444 29.6667C8.5617 29.7 8.46215 29.7 8.32941 29.7333C8.26304 29.7333 8.19667 29.7667 8.09711 29.8C7.99756 29.8333 7.898 29.8333 7.76526 29.8667C7.69889 29.9 7.63252 29.9333 7.53297 29.9333C7.43342 29.9667 7.33386 30 7.23431 30.0333C7.16794 30.0667 7.10157 30.1 7.00201 30.1333C6.90246 30.1667 6.83609 30.2 6.73653 30.2667C6.67016 30.3 6.60379 30.3333 6.53742 30.4C6.43787 30.4333 6.3715 30.5 6.27194 30.5667C6.20557 30.6 6.1392 30.6667 6.07283 30.7C6.00646 30.7667 5.90691 30.8 5.84054 30.8667C5.77417 30.9333 5.7078 30.9667 5.64143 31.0333C5.57506 31.1 5.50869 31.1667 5.44232 31.2333C5.37595 31.3 5.30958 31.3667 5.2764 31.4C5.21003 31.4667 5.14366 31.5333 5.07729 31.6C5.01092 31.6667 4.97773 31.7333 4.91136 31.8C4.84499 31.8667 4.77862 31.9667 4.74544 32.0333C4.71225 32.1 4.64588 32.1667 4.6127 32.2333C4.54633 32.3 4.51314 32.4 4.47996 32.4667C4.44678 32.5333 4.41359 32.6 4.34722 32.7C4.31404 32.8 4.24767 32.8667 4.21448 32.9667C4.1813 33.0333 4.14811 33.1333 4.11493 33.2C4.08174 33.3 4.04856 33.3667 4.01537 33.4667C3.98219 33.5333 3.949 33.6333 3.949 33.7C3.91582 33.8 3.88263 33.9 3.88263 33.9667C3.84945 34.0667 3.84945 34.1333 3.81626 34.2333C3.78308 34.3333 3.78308 34.4333 3.78308 34.5333C3.78308 34.6333 3.74989 34.7 3.74989 34.8C3.74989 34.8333 3.74989 34.8667 3.74989 34.9H1.5265V30.3667C1.5265 29.5 1.89154 28.6667 2.55524 28.1H4.54633C4.97773 28.1 5.30958 27.7667 5.30958 27.3333V21.2667H37.6317C38.7268 21.2667 39.7555 21.6 40.6515 22.2C39.8219 22.9 39.3241 23.9333 39.3241 25.0667C39.3241 25.1333 39.3241 25.2 39.3241 25.2667C39.4236 27.3 41.0497 28.8667 43.1072 28.8667V29.6H43.074ZM38.5608 19.4333L36.7357 17.6C36.8352 17.5333 36.9348 17.5 37.0343 17.4333C37.1007 17.4 37.2003 17.3667 37.2666 17.3333C37.3994 17.2667 37.5321 17.2333 37.698 17.2C37.7644 17.1667 37.8308 17.1667 37.8971 17.1333C38.1294 17.1 38.3285 17.0667 38.5608 17.0667C39.2245 17.0667 39.8551 17.2667 40.386 17.5667L38.5608 19.4333ZM41.5475 18.5667C42.0453 19.2 42.3439 20 42.3439 20.8667C42.3439 21.0667 42.3107 21.2667 42.3107 21.4333C42.3107 21.4667 42.3107 21.4667 42.3107 21.5C42.2444 21.4333 42.178 21.4 42.1448 21.3667C42.0784 21.3 42.0121 21.2333 41.9125 21.1667C41.813 21.1 41.7134 21.0333 41.6139 20.9667C41.5475 20.9 41.4479 20.8667 41.3816 20.8C41.282 20.7333 41.1824 20.6667 41.0497 20.6C40.9833 20.5667 40.8838 20.5 40.8174 20.4667C40.7179 20.4 40.5851 20.3667 40.4856 20.3C40.386 20.2667 40.3196 20.2333 40.2201 20.2C40.1537 20.1667 40.0873 20.1667 40.021 20.1333L41.5475 18.5667ZM36.7357 19.7333H34.9769C35.0432 19.5667 35.0764 19.4333 35.1428 19.2667C35.1428 19.2333 35.176 19.2 35.176 19.1667C35.2755 18.9667 35.3751 18.8 35.5078 18.6333C35.541 18.6 35.541 18.6 35.5742 18.5667L36.7357 19.7333ZM43.074 27.3333C41.8461 27.3333 40.8506 26.3667 40.8174 25.1333C40.8174 25.1 40.8174 25.1 40.8174 25.0333C40.8174 24.3 41.1824 23.6 41.7798 23.1667C41.8461 23.2333 41.9125 23.3333 41.9789 23.4333C42.1448 23.6333 42.2775 23.8667 42.3771 24.0667C42.4435 24.1667 42.4767 24.2667 42.5098 24.3333C42.6094 24.5 42.6758 24.6667 42.7421 24.8667C42.7753 24.9333 42.7753 24.9667 42.8085 25.0333C42.8749 25.2667 42.9412 25.5 42.9744 25.7667C42.9744 25.8333 43.0076 25.8667 43.0076 25.9333C43.0408 26.2 43.074 26.4667 43.074 26.7333V27.3333V27.3333ZM46.8571 34.1667C46.8571 34.6 46.5252 34.9333 46.0938 34.9333H44.5673V33.4H46.8239V34.1667H46.8571ZM46.8571 31.9H44.6005V30.3667H46.127C46.3925 30.3667 46.658 30.5 46.7907 30.7667C46.8571 30.8667 46.8902 31 46.8902 31.1333V31.9H46.8571ZM46.8571 28.8667H44.6005V26.7667C44.6005 26.5 44.5673 26.2333 44.5673 26C44.5673 25.9333 44.5673 25.9 44.5341 25.8333C44.5009 25.5667 44.4678 25.3333 44.4014 25.0667H46.8902V28.8667H46.8571ZM46.8571 23.5333H43.8041C43.7045 23.3333 43.5718 23.1 43.439 22.9C43.439 22.8667 43.4722 22.8333 43.4722 22.8C43.5054 22.7333 43.5054 22.6667 43.5386 22.6C43.5718 22.4667 43.6381 22.3333 43.6713 22.2333C43.7045 22.1667 43.7045 22.1 43.7045 22.0333C43.7377 21.9 43.7709 21.7667 43.7709 21.6333C43.7709 21.5667 43.8041 21.5 43.8041 21.4667C43.8372 21.2667 43.8372 21.0667 43.8372 20.8667C43.8372 19.3333 43.1735 17.9667 42.1448 17C42.1116 16.9667 42.1116 16.9333 42.0784 16.9333C42.0453 16.9 41.9789 16.8667 41.9457 16.8333C41.0165 16.0333 39.8219 15.5667 38.5277 15.5667C38.2954 15.5667 38.0963 15.6 37.864 15.6C37.7976 15.6 37.7644 15.6 37.698 15.6333C37.4989 15.6667 37.2998 15.7 37.1007 15.7667H37.0675C36.8684 15.8333 36.6693 15.9 36.4702 16C36.4038 16.0333 36.3706 16.0333 36.3043 16.0667C36.1383 16.1333 35.9724 16.2333 35.8065 16.3333C35.7733 16.3333 35.7733 16.3667 35.7401 16.3667C35.5742 16.4667 35.4083 16.6 35.2424 16.7333C35.2092 16.7667 35.176 16.7667 35.176 16.8C35.1096 16.8333 35.0432 16.8667 34.9769 16.9333C34.9437 16.9667 34.9437 17 34.9105 17.0333C34.8441 17.1 34.7778 17.1667 34.7114 17.2333C34.6782 17.2667 34.6782 17.2667 34.645 17.3C34.5123 17.4667 34.3795 17.6333 34.2468 17.8C34.2136 17.8333 34.1804 17.9 34.1473 17.9333C34.0477 18.0667 33.9481 18.2333 33.8818 18.4C33.8818 18.4333 33.8486 18.4333 33.8486 18.4667L32.123 15C33.384 13.6667 35.176 12.9 37.0343 12.9H40.0542C43.8041 12.9 46.8571 15.9667 46.8571 19.7333V23.5333Z" fill="#2A66FF"/>
<path d="M7.86479 13.6667H22.3666C23.7935 13.6667 24.955 12.5 24.955 11.0667V4.86666C24.955 3.43333 23.7935 2.26666 22.3666 2.26666H7.86479C6.43784 2.26666 5.27637 3.43333 5.27637 4.86666V11.1C5.27637 12.5 6.43784 13.6667 7.86479 13.6667ZM6.80287 4.86666C6.80287 4.26666 7.26746 3.8 7.86479 3.8H22.3666C22.9639 3.8 23.4285 4.26666 23.4285 4.86666V11.1C23.4285 11.7 22.9639 12.1667 22.3666 12.1667H7.86479C7.26746 12.1667 6.80287 11.7 6.80287 11.1V4.86666Z" fill="#2A66FF"/>
<path d="M9.82282 6.83332H20.4088C20.8402 6.83332 21.1721 6.49999 21.1721 6.06665C21.1721 5.63332 20.8402 5.29999 20.4088 5.29999H9.82282C9.39142 5.29999 9.05957 5.63332 9.05957 6.06665C9.05957 6.49999 9.4246 6.83332 9.82282 6.83332Z" fill="#2A66FF"/>
<path d="M9.82282 10.6333H20.4088C20.8402 10.6333 21.1721 10.3 21.1721 9.86667C21.1721 9.43334 20.8402 9.10001 20.4088 9.10001H9.82282C9.39142 9.10001 9.05957 9.43334 9.05957 9.86667C9.05957 10.3 9.4246 10.6333 9.82282 10.6333Z" fill="#2A66FF"/>
</svg>
