<svg width="53" height="52" viewBox="0 0 53 52" fill="none" xmlns="http://www.w3.org/2000/svg">
<g clip-path="url(#clip0_85_702)">
<path d="M5.55855 41.6395C4.83903 41.5913 4.07074 41.6274 3.35123 41.483C1.54635 41.1458 0.326839 39.677 0.278058 37.8831C0.253668 36.9199 0.253668 35.9568 0.278058 34.9936C0.339034 32.983 1.94879 31.4178 3.99757 31.3456C4.52196 31.3335 5.04635 31.3456 5.54635 31.3456C5.54635 29.5757 5.54635 27.8541 5.54635 26.024C5.49757 26 5.31464 25.9157 5.14391 25.8314C3.6805 25.1211 2.9122 23.9532 2.85123 22.3519C2.82684 21.5453 2.86342 20.7507 2.83903 19.944C2.81464 18.9206 3.14391 18.0177 3.82684 17.1869C2.9122 16.1756 2.77806 14.9355 2.83903 13.6473C2.87562 12.9128 2.79025 12.1543 2.9122 11.432C3.14391 10.0113 3.99757 9.012 5.37562 8.47021C5.47318 8.43409 5.55855 8.38594 5.54635 8.38594C5.50977 7.06157 5.43659 5.80945 5.44879 4.55732C5.44879 2.13735 7.09513 0.524037 9.53415 0.524037C14.4366 0.511998 19.3268 0.524037 24.2293 0.524037C28.7049 0.524037 33.1683 0.584236 37.6439 0.499958C40.2781 0.451799 42.0342 2.47446 41.8756 4.71384C41.8024 5.72517 41.9122 6.77262 41.7415 7.77191C41.4366 9.51766 39.839 10.7577 38.0585 10.7698C36.3878 10.7818 34.7293 10.7818 33.0585 10.7698C32.2415 10.7698 31.6561 10.228 31.6439 9.50562C31.6317 8.79528 32.2171 8.22942 33.0342 8.22942C34.5585 8.21738 36.0829 8.22942 37.6073 8.22942C38.7903 8.22942 39.2781 7.74783 39.2903 6.59203C39.2903 5.89373 39.3024 5.18339 39.2903 4.48509C39.2659 3.57007 38.7537 3.07645 37.839 3.07645C28.3878 3.07645 18.9366 3.07645 9.48537 3.07645C8.58294 3.07645 8.08294 3.57007 8.07074 4.44897C8.05855 5.26766 8.05855 6.0984 8.07074 6.9171C8.08294 7.67559 8.48538 8.08494 9.25367 8.16922C9.59513 8.20534 9.93659 8.22942 10.2903 8.22942C15.6927 8.22942 21.0951 8.22942 26.5098 8.22942C26.7903 8.22942 27.0829 8.22942 27.3512 8.3137C27.8878 8.48225 28.2659 9.10832 28.1927 9.63806C28.1073 10.2521 27.6317 10.7096 27.022 10.7698C26.839 10.7939 26.6561 10.7818 26.4732 10.7818C20.0342 10.7818 13.5951 10.7818 7.14391 10.7818C5.90001 10.7818 5.44879 11.2273 5.43659 12.4313C5.43659 13.1175 5.4244 13.7917 5.43659 14.478C5.46099 15.3689 5.86342 15.8505 6.75367 15.8746C8.53416 15.9348 10.3268 15.9228 12.1195 15.9348C13.0585 15.9468 13.9854 15.9348 14.9244 15.9348C15.9244 15.9348 16.5098 16.4043 16.5098 17.199C16.5098 17.9936 15.9122 18.4872 14.9366 18.4872C12.3146 18.4872 9.69269 18.4872 7.07074 18.4872C5.9122 18.4872 5.43659 18.9568 5.43659 20.0885C5.43659 20.7266 5.43659 21.3767 5.43659 22.0148C5.44879 23.1706 5.93659 23.6402 7.11952 23.6402C8.24147 23.6402 9.35123 23.6402 10.4732 23.6402C11.3878 23.6402 11.9976 24.182 11.961 24.9405C11.9366 25.699 11.3512 26.1806 10.4732 26.1926C10.1317 26.1926 9.77806 26.1926 9.43659 26.1926C8.60733 26.2167 8.09513 26.6983 8.08294 27.4929C8.07074 28.3357 8.07074 29.1784 8.08294 30.0212C8.09513 30.7797 8.47318 31.165 9.25367 31.2854C10.1805 31.4298 10.6195 31.8031 10.6561 32.5014C10.7049 33.296 10.1561 33.8859 9.33903 33.8859C7.69269 33.898 6.04635 33.8859 4.40001 33.8859C3.31464 33.8859 2.85123 34.3555 2.85123 35.4391C2.85123 36.1614 2.83903 36.8838 2.85123 37.6062C2.86342 38.4851 3.33903 39.0269 4.21708 39.0389C5.76586 39.063 7.30245 39.0389 8.85123 39.0389C9.6805 39.0389 10.5098 39.0269 11.3512 39.063C12.0342 39.0871 12.5829 39.6529 12.5829 40.3031C12.5951 40.9532 12.0585 41.5432 11.3756 41.5913C10.7659 41.6274 10.1561 41.6034 9.54635 41.6034C8.55855 41.6154 8.08294 42.0609 8.07074 43.024C8.05855 43.7705 8.05855 44.5049 8.07074 45.2514C8.08294 46.2747 8.55855 46.7443 9.60733 46.7563C11.7049 46.7684 13.7903 46.7563 15.8878 46.7563C16.0707 46.7563 16.2537 46.7563 16.4366 46.7563C17.2537 46.7924 17.7537 47.274 17.7537 48.0205C17.7537 48.779 17.2171 49.2967 16.3756 49.3087C14.9732 49.3208 13.5707 49.3087 12.1683 49.3087C11.2903 49.3087 10.4244 49.3087 9.54635 49.3087C7.27806 49.3087 5.6805 47.9121 5.46099 45.6968C5.38781 45.0226 5.4244 44.3364 5.43659 43.6501C5.46099 42.9879 5.52196 42.3257 5.55855 41.6395Z" fill="#1877F2"/>
<path d="M12.669 31.9596C12.6568 21.1841 21.4982 12.4433 32.4494 12.4193C43.4007 12.3952 52.2787 21.1721 52.2543 31.9958C52.2299 42.8194 43.4129 51.512 32.4494 51.5C21.5104 51.488 12.669 42.7713 12.669 31.9596ZM15.2787 31.9837C15.2909 41.3626 22.9738 48.9476 32.4738 48.9476C41.9616 48.9476 49.669 41.3385 49.6812 31.9717C49.6812 22.5687 41.986 14.9717 32.4494 14.9837C22.9494 14.9958 15.2665 22.5928 15.2787 31.9837Z" fill="#1877F2"/>
<path d="M15.2783 31.9837C15.2661 22.5928 22.9491 14.9958 32.4369 14.9837C41.9735 14.9717 49.6808 22.5687 49.6686 31.9717C49.6686 41.3385 41.9491 48.9476 32.4613 48.9476C22.9735 48.9476 15.2905 41.3626 15.2783 31.9837ZM31.132 25.073C30.9857 25.085 30.8637 25.097 30.7539 25.1091C29.2174 25.3378 27.7174 25.6749 26.5466 26.8067C25.071 28.2273 25.1686 30.3945 26.8637 31.5382C27.6442 32.068 28.5954 32.4292 29.5222 32.6579C31.0344 33.0432 32.5832 33.2118 34.1076 33.5489C34.9491 33.7295 35.7905 33.9943 36.5832 34.3194C37.1686 34.5602 37.1686 35.09 36.6564 35.4511C36.3515 35.6679 35.9857 35.8364 35.632 35.9568C34.2418 36.4143 32.8027 36.4866 31.3637 36.3421C29.9369 36.1976 28.5222 35.9448 27.1076 35.716C26.193 35.5595 25.5466 35.8966 25.3515 36.6792C25.1808 37.3895 25.632 38.0276 26.4978 38.2323C27.132 38.3768 27.7661 38.5213 28.4003 38.6176C29.3149 38.762 30.2418 38.8704 31.1442 38.9908C31.3149 40.4596 31.6564 40.9533 32.4735 40.9773C33.2783 40.9894 33.5954 40.5319 33.8759 38.9306C34.0588 38.9065 34.2661 38.9065 34.4613 38.8463C35.5588 38.5213 36.7052 38.2925 37.7296 37.8109C38.9369 37.2451 39.6442 36.1976 39.5954 34.813C39.5588 33.3683 38.7418 32.381 37.4369 31.8874C36.2905 31.454 35.0832 31.1891 33.8759 30.9122C32.3393 30.563 30.7783 30.2861 29.2539 29.937C28.7783 29.8286 28.0954 29.636 28.1686 29.0822C28.2174 28.721 28.8027 28.3357 29.2174 28.1431C30.4003 27.6013 31.693 27.5531 32.9735 27.6133C34.2417 27.6856 35.5222 27.8421 36.7783 27.9866C37.6076 28.0829 38.2905 27.6494 38.4125 26.915C38.5222 26.2047 38.0466 25.6147 37.2174 25.4582C36.7174 25.3619 36.2174 25.3017 35.7174 25.2415C35.0832 25.1693 34.4491 25.1091 33.8271 25.0368C33.693 23.5319 33.3271 22.9781 32.4857 22.9781C31.693 22.954 31.3515 23.4596 31.132 25.073Z" fill="#FFF100"/>
<path d="M31.1321 25.073C31.3516 23.4476 31.6808 22.954 32.4979 22.954C33.3394 22.954 33.7174 23.5078 33.8394 25.0128C34.4613 25.073 35.0955 25.1332 35.7296 25.2174C36.2296 25.2776 36.7296 25.3499 37.2296 25.4342C38.0589 25.5907 38.5345 26.1806 38.4247 26.8909C38.3028 27.6374 37.6199 28.0588 36.7906 27.9625C35.5223 27.818 34.254 27.6615 32.9857 27.5892C31.7052 27.517 30.4125 27.5772 29.2296 28.119C28.8028 28.3116 28.2296 28.6969 28.1808 29.0581C28.0955 29.6119 28.7906 29.8045 29.2662 29.9129C30.8028 30.2741 32.3638 30.539 33.8882 30.8881C35.0833 31.165 36.3028 31.4419 37.4491 31.8633C38.754 32.357 39.5589 33.3442 39.6077 34.789C39.6443 36.1735 38.9491 37.221 37.7418 37.7868C36.7174 38.2684 35.5711 38.4972 34.4735 38.8222C34.2784 38.8824 34.0833 38.8824 33.8882 38.9065C33.6077 40.5078 33.2906 40.9653 32.4857 40.9533C31.6686 40.9412 31.3272 40.4356 31.1565 38.9667C30.254 38.8463 29.3272 38.738 28.4125 38.5935C27.7784 38.4972 27.1443 38.3527 26.5101 38.2082C25.6443 38.0036 25.1808 37.3655 25.3638 36.6551C25.5589 35.8725 26.2052 35.5475 27.1199 35.6919C28.5345 35.9327 29.9491 36.1735 31.376 36.318C32.815 36.4625 34.254 36.3902 35.6443 35.9327C36.0101 35.8123 36.3638 35.6438 36.6686 35.4271C37.1808 35.0659 37.1686 34.5361 36.5955 34.2953C35.8028 33.9703 34.9613 33.7054 34.1199 33.5248C32.5955 33.1997 31.0345 33.0191 29.5345 32.6339C28.6077 32.4051 27.6686 32.0439 26.876 31.5142C25.1808 30.3704 25.0833 28.2033 26.5589 26.7826C27.7296 25.6629 29.2174 25.3138 30.7662 25.085C30.876 25.097 30.9979 25.085 31.1321 25.073Z" fill="#2A66FF"/>
</g>
<defs>
<clipPath id="clip0_85_702">
<rect width="52" height="51" fill="white" transform="translate(0.253906 0.5)"/>
</clipPath>
</defs>
</svg>
