<svg width="25" height="25" viewBox="0 0 25 25" fill="none" xmlns="http://www.w3.org/2000/svg">
<g clip-path="url(#clip0_60_1681)">
<path d="M23.7469 16.0164C20.2213 25.6791 9.6446 23.7204 9.6446 23.7204C-2.49903 18.628 2.20173 8.18182 2.20173 8.18182C6.24961 -1.61143 17.3486 1.91413 17.3486 1.91413C26.3584 7.1372 23.7469 16.0164 23.7469 16.0164ZM12.7784 4.86517C9.56625 4.86517 6.98084 6.77159 5.70118 9.43536C5.12665 10.5322 4.81326 11.7596 4.73492 13.0393C4.55211 17.2961 8.49552 20.9261 12.6217 20.9261C15.8339 20.9261 18.4194 19.0197 19.699 16.3559C20.2735 15.2591 20.5869 14.0317 20.6653 12.752C20.8481 8.4952 16.9047 4.86517 12.7784 4.86517Z" fill="#2A66FF"/>
<path d="M24.7134 12.7259C24.7134 6.11871 19.3075 0.71283 12.7003 0.71283C6.11926 0.71283 0.713379 6.09259 0.713379 12.6998C0.713379 19.3331 6.09314 24.7128 12.7264 24.7128C19.3336 24.7128 24.7134 19.307 24.7134 12.7259ZM12.7264 23.5638C6.71991 23.5638 1.86245 18.7063 1.83634 12.6998C1.83634 6.74547 6.71991 1.8619 12.6742 1.83579C18.7069 1.83579 23.5904 6.69324 23.5904 12.6737C23.5904 18.6802 18.733 23.5638 12.7264 23.5638Z" fill="#2A66FF"/>
<path d="M12.7001 4.13394C7.99935 4.13394 4.13428 7.99901 4.13428 12.6998C4.13428 17.4267 7.99935 21.2917 12.7262 21.2917C17.4531 21.2917 21.2921 17.4005 21.2921 12.6737C21.2921 7.9729 17.427 4.13394 12.7001 4.13394ZM12.7262 20.1426C12.3606 20.1426 11.995 20.0904 11.6033 20.0382C11.4466 20.0121 11.4205 19.9337 11.4466 19.8031C11.551 19.2025 11.6555 18.6018 11.76 18.0012C11.8644 17.3744 12.0211 16.7477 11.9689 16.0948C11.9166 15.3113 11.316 14.6323 10.5587 14.5017C10.0102 14.3973 9.54015 14.6062 9.07008 14.8412C8.18216 15.2852 7.32035 15.7553 6.43243 16.1992C6.27574 16.2776 6.2235 16.2776 6.14516 16.1209C5.80566 15.4419 5.57062 14.7629 5.41393 14.0055C5.38781 13.8227 5.44004 13.7705 5.59674 13.7444C6.27574 13.6399 6.92862 13.5616 7.60762 13.4571C8.15604 13.3788 8.73058 13.3265 9.25288 13.1176C10.2453 12.752 10.8198 11.5507 10.1669 10.5583C9.98411 10.2972 9.80131 10.0621 9.56627 9.8532C8.86115 9.14809 8.15604 8.46909 7.45093 7.76397C7.32035 7.65951 7.32035 7.58117 7.45093 7.4767C7.99935 6.9544 8.6 6.51044 9.25288 6.14482C9.43569 6.04036 9.48792 6.09259 9.56627 6.24928C9.958 7.05886 10.3497 7.84232 10.7676 8.65189C10.9243 8.96528 11.1071 9.30478 11.316 9.59205C12.0472 10.5322 13.353 10.5322 14.0842 9.59205C14.267 9.35701 14.4237 9.09586 14.5543 8.8347C14.9983 7.9729 15.4422 7.08497 15.8601 6.22317C15.9384 6.06647 15.9906 6.04036 16.1473 6.14482C16.8263 6.51044 17.427 6.9544 17.9754 7.4767C18.0799 7.58117 18.1321 7.65951 17.9754 7.79009C17.2703 8.46909 16.5652 9.1742 15.8601 9.8532C15.6511 10.0621 15.4422 10.2972 15.2855 10.5322C14.9983 10.95 14.8938 11.4201 15.0505 11.8902C15.2855 12.6998 15.8862 13.1176 16.6958 13.2482C17.7143 13.431 18.7589 13.5616 19.8035 13.7183C19.9863 13.7444 20.0646 13.7966 20.0385 14.0055C19.8818 14.7368 19.6468 15.4158 19.3073 16.0948C19.2289 16.2515 19.1506 16.2515 19.02 16.1731C18.4455 15.8597 17.8448 15.5463 17.2442 15.2591C16.7741 15.024 16.304 14.7368 15.7817 14.5801C14.7632 14.2667 13.7708 14.789 13.5358 15.8075C13.4313 16.2515 13.5097 16.6954 13.5619 17.1394C13.7186 18.0273 13.8492 18.9152 14.0059 19.8031C14.032 19.9598 14.0059 20.0121 13.8231 20.0382C13.4575 20.0904 13.0918 20.1426 12.7262 20.1426ZM12.7001 5.28302C13.3791 5.28302 14.032 5.41359 14.6849 5.57028C14.8677 5.62251 14.8677 5.67474 14.7893 5.83144C14.3454 6.69324 13.9275 7.55505 13.4836 8.41686C13.3791 8.59966 13.2746 8.78247 13.1702 8.93916C13.0657 9.09586 12.8829 9.1742 12.674 9.1742C12.3084 9.1742 12.1778 8.91305 12.0472 8.65189C11.551 7.71174 11.081 6.74547 10.6109 5.77921C10.5587 5.64863 10.5587 5.5964 10.6892 5.57028C11.3421 5.38748 12.0211 5.28302 12.7001 5.28302ZM5.28335 12.4647C5.3617 11.0545 5.72731 9.82709 6.45854 8.70413C6.563 8.54743 6.61523 8.52132 6.74581 8.67801C7.42481 9.38312 8.12992 10.0621 8.83504 10.7411C8.96562 10.8717 9.12231 11.0284 9.22677 11.1851C9.43569 11.5246 9.30512 11.8902 8.96562 12.0469C8.88727 12.073 8.78281 12.0991 8.70446 12.1252C7.68596 12.3342 6.64135 12.4647 5.59674 12.6214C5.28335 12.6737 5.28335 12.6737 5.28335 12.4647ZM20.143 12.4125C20.1169 12.4909 20.2474 12.6998 19.9602 12.6475C19.1245 12.517 18.2888 12.3864 17.4792 12.2558C17.1658 12.2036 16.8524 12.1775 16.5391 12.073C16.1212 11.9163 15.9906 11.4985 16.2518 11.159C16.3563 11.0284 16.4607 10.8978 16.5652 10.7672C17.2703 10.0621 17.9754 9.38312 18.6805 8.67801C18.8111 8.54743 18.8633 8.54743 18.9678 8.70413C19.699 9.82709 20.0646 11.0545 20.143 12.4125ZM14.5804 16.4343C14.5804 16.1731 14.6065 15.9381 14.8416 15.7553C15.1288 15.5463 15.4161 15.6508 15.6773 15.7814C16.5913 16.2515 17.5053 16.7215 18.4194 17.1916C18.5499 17.2438 18.5238 17.2961 18.4455 17.4005C18.1321 17.7923 17.7665 18.1318 17.3748 18.4451C16.748 18.9675 16.069 19.3592 15.3116 19.6465C15.2333 19.6726 15.1288 19.777 15.0766 19.5681C14.946 18.5235 14.7632 17.4789 14.5804 16.4343ZM10.8198 16.6171C10.6892 17.4789 10.5064 18.5235 10.3497 19.5942C10.3236 19.7509 10.2453 19.6987 10.1669 19.6726C8.91339 19.2025 7.84266 18.4451 7.00697 17.4005C6.92862 17.3222 6.92862 17.27 7.03308 17.2177C7.18977 17.1394 7.34646 17.061 7.52927 16.9566C8.33885 16.5387 9.12231 16.0948 9.93188 15.7292C10.4803 15.468 10.872 15.7814 10.8198 16.6171Z" fill="#2A66FF"/>
<path d="M13.3009 12.6998C13.3009 12.3864 13.0398 12.1252 12.7264 12.1252C12.413 12.1252 12.1519 12.4125 12.1519 12.6998C12.1519 13.0132 12.413 13.2482 12.7264 13.2482C13.0398 13.2743 13.3009 13.0132 13.3009 12.6998Z" fill="#2A66FF"/>
</g>
<defs>
<clipPath id="clip0_60_1681">
<rect width="24" height="24" fill="white" transform="matrix(1 0 0 -1 0.713379 24.7128)"/>
</clipPath>
</defs>
</svg>
