<svg width="20" height="19" viewBox="0 0 20 19" fill="none" xmlns="http://www.w3.org/2000/svg">
<g clip-path="url(#clip0_47_49)">
<path d="M2.67264 5.06348L5.50742 2.36969L5.66397 3.93708L10.3271 8.37361L8.5938 10.0154L8.21918 9.36186V8.94212L6.32933 7.45442L6.45234 7.00811L4.40593 5.28664L2.67264 5.06348Z" fill="#2A66FF"/>
<path d="M17.4504 13.9843L14.6156 16.6781L14.459 15.1107L9.79031 10.6795L11.5236 9.03244L11.8982 9.68596L11.9038 10.1057L13.7937 11.5934L13.6707 12.0397L15.7171 13.7612L17.4504 13.9843Z" fill="#2A66FF"/>
<path d="M5.30054 16.5134L2.46017 13.8196L4.11519 13.6709L8.77832 9.23434L10.5116 10.8814L9.82389 11.2374H9.38218L7.81662 13.0386L7.34695 12.9217L5.53538 14.8663L5.30054 16.5134Z" fill="#2A66FF"/>
<path d="M14.6659 2.33781L17.5007 5.0316L15.8457 5.18568L11.1825 9.61689L9.44925 7.9698L10.137 7.61381H10.5787L12.1442 5.81264L12.6195 5.92953L14.4255 3.9849L14.6659 2.33781Z" fill="#2A66FF"/>
<path d="M11.7864 9.54782C11.8535 9.59033 11.9318 9.62752 11.9933 9.68065C13.1395 10.7645 14.2913 11.8431 15.4151 12.9483C15.7115 13.2352 16.0246 13.384 16.4328 13.4265C16.8465 13.469 17.2547 13.5433 17.6628 13.623C17.7635 13.6443 17.8753 13.6974 17.948 13.7665C18.5854 14.3616 19.2172 14.9673 19.849 15.5677C20.0503 15.759 20.0447 15.9183 19.8434 16.1149C18.8817 17.0288 17.92 17.9427 16.9583 18.8565C16.7459 19.0584 16.5837 19.0584 16.3713 18.8565C15.7394 18.2615 15.1188 17.6611 14.487 17.066C14.2801 16.8747 14.3137 16.6144 14.2633 16.3859C14.1739 15.9715 14.118 15.557 14.0397 15.1426C14.0285 15.0842 13.9894 15.0151 13.9446 14.9726C12.6531 13.7399 11.3559 12.5073 10.0587 11.2799C10.0475 11.2693 10.0252 11.2587 9.9972 11.2427C9.94688 11.2852 9.89656 11.3277 9.84624 11.3756C8.62175 12.5392 7.39726 13.7134 6.16158 14.8663C5.93234 15.0789 5.94353 15.3339 5.88761 15.5836C5.80374 15.9768 5.75342 16.3753 5.66955 16.7685C5.64719 16.8747 5.58568 16.9969 5.50741 17.0766C4.89236 17.677 4.26614 18.2668 3.63992 18.8565C3.41627 19.0691 3.25971 19.0691 3.03606 18.8565C2.07436 17.9374 1.11825 17.0235 0.162144 16.1149C-0.0503244 15.9077 -0.0559157 15.759 0.156553 15.557C0.782776 14.9567 1.41459 14.3669 2.04081 13.7612C2.24769 13.5593 2.52725 13.5912 2.77886 13.5433C3.2038 13.4583 3.63992 13.4052 4.07045 13.3361C4.13195 13.3255 4.20464 13.2936 4.24937 13.2511C5.55214 12.0185 6.84931 10.7805 8.15208 9.54251C8.16326 9.53188 8.16885 9.52125 8.18004 9.49469C8.1409 9.45218 8.09617 9.40437 8.04585 9.35655C6.81576 8.18764 5.5745 7.01874 4.3556 5.83921C4.14313 5.63199 3.88593 5.63731 3.63433 5.58949C3.20939 5.50979 2.77327 5.45666 2.34274 5.37696C2.2421 5.36102 2.13027 5.30789 2.05759 5.24413C1.41459 4.64905 0.777185 4.04335 0.14537 3.43233C-0.0447332 3.24637 -0.0447332 3.08697 0.150962 2.90101C1.11266 1.98183 2.07995 1.06264 3.04724 0.143458C3.24853 -0.0478168 3.41627 -0.0478168 3.62315 0.143458C4.26055 0.74385 4.88677 1.34955 5.52418 1.94463C5.71987 2.12528 5.69192 2.36969 5.73665 2.58753C5.82611 3.00196 5.88202 3.41639 5.9603 3.83082C5.97148 3.89989 5.99944 3.97427 6.04976 4.02209C7.35812 5.2707 8.66648 6.51398 9.9972 7.77321C10.0531 7.72008 10.109 7.67758 10.1593 7.62444C11.3838 6.46085 12.6083 5.28663 13.844 4.13367C14.0732 3.92114 14.0565 3.6608 14.1124 3.41108C14.1962 3.0179 14.2466 2.61941 14.3304 2.22623C14.3528 2.12528 14.4087 2.0137 14.4814 1.93932C15.102 1.33893 15.7339 0.74385 16.3657 0.143458C16.5781 -0.0584432 16.7403 -0.0637564 16.9528 0.138145C17.9145 1.05202 18.8761 1.96589 19.8378 2.87976C20.0503 3.08166 20.0447 3.23574 19.8323 3.43764C19.2116 4.03272 18.5798 4.61717 17.9648 5.21756C17.7523 5.41946 17.4839 5.3929 17.2323 5.44072C16.7962 5.52573 16.3601 5.57886 15.924 5.64793C15.868 5.65856 15.8065 5.68512 15.7618 5.72763C14.4534 6.96561 13.1507 8.2089 11.8479 9.44687C11.8367 9.4575 11.8367 9.46812 11.8311 9.48406C11.8144 9.51594 11.7976 9.53188 11.7864 9.54782ZM14.8784 2.93289C14.8113 3.30481 14.7554 3.68736 14.6659 4.0646C14.638 4.19743 14.5653 4.34089 14.4646 4.43652C13.0948 5.74888 11.7193 7.05062 10.3439 8.35766C10.0643 8.62332 9.93011 8.62332 9.65054 8.35766C8.30304 7.07718 6.95555 5.79139 5.59687 4.51622C5.41235 4.34089 5.3173 4.15492 5.28935 3.91583C5.24462 3.5811 5.17193 3.25168 5.12161 2.94883C4.43947 3.58641 3.76293 4.224 3.08079 4.86689C3.34358 4.9094 3.61755 4.94128 3.88034 4.99972C4.13754 5.05285 4.41711 5.02098 4.63517 5.22819C6.02739 6.5618 7.4308 7.8901 8.82862 9.2184C9.05227 9.43093 9.05227 9.58501 8.83422 9.79223C7.4308 11.1258 6.02739 12.4595 4.61839 13.7931C4.54011 13.8675 4.4227 13.9206 4.31646 13.9418C3.90271 14.0215 3.48336 14.0853 3.08638 14.1491C3.76293 14.7919 4.43947 15.4348 5.11602 16.0777C5.16075 15.8333 5.1887 15.5783 5.25021 15.3233C5.30612 15.0842 5.26139 14.8185 5.47386 14.6219C6.88286 13.283 8.29186 11.9441 9.70086 10.6105C9.91333 10.4086 10.0755 10.4139 10.2879 10.6158C11.6914 11.9494 13.0948 13.283 14.4982 14.6219C14.5765 14.7016 14.6324 14.8185 14.6547 14.9301C14.7386 15.318 14.8001 15.7111 14.8672 16.0618C15.5382 15.4242 16.2091 14.7813 16.8745 14.1491C16.6396 14.1119 16.3657 14.0853 16.0973 14.0268C15.8401 13.9684 15.5605 14.0056 15.3425 13.7931C13.9502 12.4595 12.5468 11.1312 11.149 9.80285C10.9365 9.60095 10.9309 9.44687 11.1434 9.24497C12.5468 7.91136 13.9502 6.57774 15.3592 5.24413C15.4431 5.16974 15.5661 5.1113 15.6779 5.09005C16.0917 5.01035 16.5054 4.9519 16.9024 4.88283C16.2315 4.224 15.5605 3.5811 14.8784 2.93289ZM0.849871 15.8174C1.68297 16.6091 2.51607 17.4007 3.31562 18.1658C3.80766 17.7036 4.31646 17.2307 4.78613 16.7897C3.96421 16.0034 3.13111 15.2117 2.30919 14.4307C1.83394 14.8876 1.3419 15.3551 0.849871 15.8174ZM0.855462 3.15604C1.35868 3.63423 1.8563 4.1071 2.34274 4.56935C3.15907 3.79363 3.99217 3.00196 4.79731 2.23155C4.31087 1.76398 3.80766 1.2858 3.32122 0.812921C2.4993 1.58865 1.67179 2.38032 0.855462 3.15604ZM17.6461 4.56935C18.1437 4.09648 18.6469 3.6236 19.1222 3.16667C18.3058 2.39094 17.4727 1.59927 16.6732 0.844801C16.1812 1.30174 15.6779 1.77461 15.1859 2.23155C16.0078 3.01259 16.8353 3.79894 17.6461 4.56935ZM19.1445 15.844C18.6469 15.3711 18.1493 14.8929 17.6796 14.4519C16.8521 15.2329 16.019 16.0299 15.2139 16.795C15.6891 17.2466 16.1867 17.7248 16.6788 18.1924C17.4951 17.4114 18.3226 16.625 19.1445 15.844Z" fill="#2A66FF"/>
</g>
<defs>
<clipPath id="clip0_47_49">
<rect width="20" height="19" fill="white"/>
</clipPath>
</defs>
</svg>
