<svg width="30" height="24" viewBox="0 0 30 24" fill="none" xmlns="http://www.w3.org/2000/svg">
<g clip-path="url(#clip0_60_1425)">
<path d="M23.2049 1.684L10.1606 1.54774C-5.93638 9.36883 4.22493 19.6153 4.22493 19.6153C11.7152 26.0193 19.7707 20.1603 19.7707 20.1603C26.2717 12.53 20.9013 6.67097 20.9013 6.67097L23.2049 6.80722V1.684ZM11.9978 18.0892C8.91694 18.0892 6.62746 15.6639 6.50027 12.8025C6.48614 12.6254 6.50027 12.4346 6.5144 12.2575C6.5144 12.2166 6.50027 12.1621 6.50027 12.1212C6.37308 9.25983 9.11479 6.82085 11.9978 6.82085C12.0685 6.82085 12.1392 6.82085 12.2098 6.82085C12.2805 6.82085 12.3511 6.82085 12.4218 6.82085C15.5027 6.82085 17.778 9.2462 17.9194 12.1212C17.9759 13.1976 17.6085 14.2195 16.9866 15.078C16.0539 16.8357 14.0612 18.0892 11.9978 18.0892Z" fill="#2A66FF"/>
<path d="M18.2585 1.39787C20.548 1.39787 22.8233 1.39787 25.1128 1.39787C25.4237 1.39787 25.5368 1.32974 25.5227 1.01635C25.5085 0.566705 25.7064 0.403198 26.1586 0.389572C27.1196 0.389572 28.0807 0.389572 29.0275 0.389572C29.4939 0.389572 29.6776 0.566705 29.6776 1.00272C29.6776 3.26457 29.6776 5.52642 29.6776 7.78827C29.6776 8.21066 29.4939 8.40142 29.0417 8.40142C28.0665 8.40142 27.1055 8.40142 26.1304 8.40142C25.6781 8.40142 25.4803 8.22429 25.4944 7.80189C25.5085 7.48851 25.4096 7.39313 25.0846 7.39313C24.2649 7.42038 23.4452 7.40675 22.6255 7.40675C22.2439 7.40675 22.2439 7.40675 22.3994 7.72014C23.2473 9.46422 23.6289 11.3037 23.431 13.1976C23.0071 17.3807 20.8448 20.4737 16.9018 22.2995C10.0899 25.4743 1.90717 21.2504 0.790695 14.0288C-0.0996554 8.10166 4.01292 2.58329 10.1606 1.54775C10.7259 1.45237 11.2912 1.39787 11.8565 1.39787C14.0046 1.41149 16.1245 1.39787 18.2585 1.39787ZM15.7005 7.42038C15.7288 7.52938 15.7995 7.54301 15.856 7.59751C17.7498 9.06907 18.5694 10.963 18.2444 13.2794C17.8063 16.3996 14.7113 18.716 11.4466 18.3754C8.25268 18.0483 5.85015 15.4731 5.86428 12.3801C5.86428 9.05545 8.63426 6.38483 12.0826 6.38483C15.3896 6.38483 18.6966 6.38483 22.0037 6.38483C22.3004 6.38483 22.4135 6.3167 22.4135 6.00332C22.3994 4.95414 22.4135 3.90497 22.3994 2.8558C22.3994 2.43341 22.3994 2.43341 21.9613 2.43341C18.7108 2.43341 15.4603 2.43341 12.2098 2.43341C10.3443 2.43341 8.59186 2.8558 6.95249 3.74147C2.99537 5.92156 1.05921 10.2136 1.93543 14.3694C3.02364 19.5608 8.06896 22.9672 13.4393 22.2586C16.2093 21.8908 18.4705 20.6508 20.1806 18.5389C21.7917 16.5495 22.5124 14.274 22.357 11.7397C22.258 10.3226 21.8623 8.98732 21.184 7.72014C21.0568 7.48851 20.9155 7.39313 20.6328 7.39313C19.4457 7.40675 18.2585 7.39313 17.0855 7.39313C16.6333 7.42038 16.1669 7.42038 15.7005 7.42038ZM28.6036 4.45C28.6036 3.56434 28.5894 2.66505 28.6036 1.77938C28.6036 1.5205 28.5188 1.43874 28.2502 1.45237C27.7839 1.46599 27.3316 1.46599 26.8653 1.45237C26.6674 1.45237 26.5685 1.50687 26.5685 1.71125C26.5685 3.50983 26.5685 5.32204 26.5685 7.12061C26.5685 7.325 26.6533 7.39313 26.8511 7.39313C27.3175 7.3795 27.7697 7.3795 28.2361 7.39313C28.5329 7.40675 28.6036 7.29775 28.5894 7.03886C28.6036 6.16682 28.6036 5.30841 28.6036 4.45ZM25.5085 4.40912C25.5085 3.85047 25.5085 3.29182 25.5085 2.73317C25.5085 2.52879 25.452 2.43341 25.2117 2.43341C24.7312 2.44704 24.2507 2.44704 23.7561 2.43341C23.5158 2.43341 23.4734 2.52879 23.4734 2.73317C23.4734 3.85047 23.4876 4.96777 23.4734 6.08507C23.4734 6.33033 23.5724 6.38483 23.7985 6.38483C24.2507 6.37121 24.703 6.37121 25.1552 6.38483C25.4096 6.39846 25.5227 6.3167 25.5085 6.05782C25.4944 5.51279 25.5085 4.95415 25.5085 4.40912ZM13.1002 12.3937C13.1002 11.8896 12.6055 11.4127 12.0826 11.4263C11.5597 11.4399 11.0933 11.8896 11.0933 12.3937C11.0933 12.8979 11.588 13.3748 12.1109 13.3748C12.6196 13.3475 13.1002 12.8842 13.1002 12.3937ZM12.6338 16.7675C12.6338 17.3262 12.6338 17.3262 13.1567 17.2172C13.7078 17.1082 14.2308 16.9174 14.7113 16.6313C15.3614 16.2498 15.3614 16.2634 14.8385 15.7456C14.6971 15.6094 14.5841 15.5685 14.4003 15.7047C13.9905 15.9909 13.5383 16.1953 13.0436 16.2634C12.6903 16.3451 12.5631 16.495 12.6338 16.7675ZM11.5456 16.822C11.5456 16.386 11.5456 16.3724 11.3194 16.3315C10.74 16.2225 10.2171 16.0045 9.72247 15.6911C9.62354 15.623 9.53875 15.5685 9.43982 15.6911C9.27023 15.8819 9.01584 16.0045 8.93105 16.2634C8.91691 16.2906 8.98758 16.3451 9.02997 16.3724C9.70834 16.8629 10.4715 17.149 11.3053 17.2853C11.4749 17.3126 11.5456 17.2444 11.5456 17.0809C11.5456 16.9855 11.5456 16.9038 11.5456 16.822ZM16.7181 12.9115C16.2376 12.9115 16.2376 12.9115 16.1245 13.3475C16.0397 13.6881 15.9125 14.0152 15.7288 14.3286C15.4038 14.86 15.4179 14.86 15.8701 15.296C16.068 15.4867 16.1528 15.4186 16.28 15.2415C16.6898 14.6692 16.9725 14.056 17.1138 13.3748C17.2127 12.9115 17.2127 12.9115 16.7181 12.9115ZM16.6333 11.8623C17.2127 11.8623 17.2127 11.8623 17.1138 11.3718C17.0007 10.854 16.817 10.3499 16.5344 9.90024C16.0115 9.0827 16.1669 9.25983 15.5733 9.77761C15.4462 9.88661 15.432 9.98199 15.5451 10.1182C15.8419 10.5134 16.068 10.963 16.1528 11.4399C16.1952 11.7806 16.3224 11.9441 16.6333 11.8623ZM7.48953 11.8623C7.92763 11.8623 7.92763 11.8623 8.0407 11.4536C8.15376 10.9903 8.35161 10.5543 8.63426 10.1455C8.69079 10.0637 8.81799 9.95474 8.69079 9.84573C8.49294 9.6686 8.35161 9.43696 8.09723 9.34159C8.06896 9.32796 8.01243 9.39609 7.98416 9.43696C7.46126 10.091 7.16448 10.8404 7.02315 11.6443C6.99489 11.8078 7.07968 11.8759 7.23514 11.8623C7.31993 11.8623 7.40473 11.8623 7.48953 11.8623ZM12.6338 7.97903C12.5348 8.30604 12.7327 8.4423 13.1002 8.4968C13.4676 8.5513 13.7926 8.70118 14.1177 8.86469C14.6971 9.17808 14.683 9.16445 15.1494 8.70118C15.3048 8.5513 15.2766 8.46955 15.107 8.36054C14.4993 7.95178 13.8492 7.66564 13.1143 7.52938C12.6338 7.44763 12.6338 7.44763 12.6338 7.97903ZM11.5456 7.99265C11.5456 7.46125 11.5456 7.46125 11.0509 7.54301C10.4856 7.65201 9.96272 7.84277 9.46808 8.12891C8.81799 8.4968 8.81799 8.4968 9.35502 9.01457C9.51048 9.16445 9.62354 9.16445 9.79313 9.05545C10.1888 8.78294 10.627 8.59218 11.1075 8.4968C11.4466 8.42867 11.6586 8.30604 11.5456 7.99265ZM7.53192 12.9115C6.98075 12.9115 6.98075 12.9115 7.07968 13.3884C7.19274 13.9334 7.3906 14.4376 7.68738 14.9145C8.06896 15.5412 8.06896 15.5412 8.606 15.0235C8.76146 14.8736 8.76146 14.7646 8.63426 14.6011C8.35161 14.2195 8.15376 13.7972 8.06896 13.3339C7.98417 13.0069 7.85697 12.8161 7.53192 12.9115ZM12.6338 14.7782C12.6338 15.3505 12.6338 15.3505 13.1849 15.1461C13.2273 15.1325 13.2697 15.1188 13.298 15.0916C13.8774 14.8463 13.8774 14.8463 13.4252 14.3967C13.2273 14.1923 13.0719 14.1242 12.7892 14.2741C12.549 14.4239 12.6762 14.6283 12.6338 14.7782ZM12.6338 9.95474C12.6338 9.99561 12.6338 10.0365 12.6338 10.0774C12.5914 10.309 12.6903 10.4453 12.9306 10.5406C13.1708 10.636 13.2697 10.5134 13.3969 10.3908C13.9057 9.90024 13.9057 9.88661 13.1708 9.6141C12.6338 9.42334 12.6338 9.42334 12.6338 9.95474ZM11.5456 14.8191C11.5456 14.7782 11.5456 14.7373 11.5456 14.6964C11.588 14.4648 11.489 14.3286 11.2488 14.2332C11.0085 14.1378 10.9096 14.2604 10.7965 14.3831C10.2878 14.8736 10.2878 14.8872 11.0085 15.1597C11.5314 15.3505 11.5456 15.3368 11.5456 14.8191ZM9.60941 12.9115C9.01584 12.9115 9.01584 12.9251 9.2137 13.4293C9.22783 13.4701 9.24196 13.511 9.27023 13.5383C9.52461 14.1105 9.52461 14.0969 9.97685 13.6745C10.1747 13.4974 10.2736 13.3339 10.1182 13.075C9.99099 12.8297 9.779 12.9387 9.60941 12.9115ZM11.5456 9.98199C11.5456 9.43696 11.5314 9.42334 11.0227 9.6141C10.9803 9.62772 10.9379 9.64135 10.9096 9.6686C10.3019 9.92749 10.316 9.91386 10.7683 10.3635C10.9661 10.5679 11.1357 10.6224 11.4042 10.4861C11.6445 10.3499 11.5173 10.1455 11.5456 9.98199ZM9.56701 11.8623C9.60941 11.8623 9.65181 11.8623 9.6942 11.8623C9.93446 11.9032 10.0758 11.8078 10.1747 11.5762C10.2736 11.3445 10.1464 11.2628 10.0193 11.1402C9.51048 10.636 9.49635 10.6496 9.2137 11.3445C9.01584 11.8487 9.02997 11.8623 9.56701 11.8623ZM14.5699 11.8623C15.1494 11.8623 15.1635 11.8487 14.9515 11.3309C14.9374 11.29 14.9232 11.2492 14.895 11.2219C14.6406 10.6633 14.6547 10.6769 14.1884 11.0993C13.9764 11.29 13.9057 11.4399 14.047 11.7124C14.2025 11.9441 14.4145 11.8351 14.5699 11.8623ZM15.0646 13.075C15.107 12.9387 15.0222 12.8979 14.895 12.8979C14.7395 12.8979 14.5982 12.9115 14.4427 12.8979C14.1884 12.8706 14.0894 13.0069 13.9905 13.1976C13.8916 13.402 14.0188 13.4974 14.1318 13.62C14.2449 13.7154 14.3438 13.8244 14.4427 13.9334C14.5275 14.0288 14.6123 14.056 14.6971 13.9198C14.8667 13.6473 15.008 13.3884 15.0646 13.075Z" fill="#2A66FF"/>
</g>
<defs>
<clipPath id="clip0_60_1425">
<rect width="29" height="23" fill="white" transform="translate(0.691772 0.403198)"/>
</clipPath>
</defs>
</svg>
