<svg width="134" height="134" viewBox="0 0 134 134" fill="none" xmlns="http://www.w3.org/2000/svg">
<circle cx="67.2617" cy="67" r="66.7383" fill="#1877F2"/>
<path d="M69.6527 58.1416H66.1176C65.4417 58.1416 64.9219 58.6637 64.9219 59.3426C64.9219 60.0214 65.4417 60.5436 66.1176 60.5436H69.6527C70.3285 60.5436 70.8484 60.0214 70.8484 59.3426C70.7964 58.716 70.2765 58.1416 69.6527 58.1416Z" fill="white"/>
<path d="M61.3353 59.3426C60.6595 59.3426 60.1396 59.8648 60.1396 60.5437V67.6977C60.1396 68.3766 60.6595 68.8988 61.3353 68.8988C62.0112 68.8988 62.531 68.3766 62.531 67.6977V60.5437C62.531 59.8648 62.0112 59.3426 61.3353 59.3426Z" fill="white"/>
<path d="M90.9666 39.1337C95.5415 39.1337 99.2325 35.3739 99.2325 30.8309C99.2325 26.2356 95.4895 22.4758 90.9666 22.4758C86.3918 22.4758 82.7007 26.2356 82.7007 30.8309C82.6487 35.3739 86.3918 39.1337 90.9666 39.1337ZM90.9666 24.8779C94.2418 24.8779 96.8931 27.541 96.8931 30.8309C96.8931 34.1207 94.2418 36.7839 90.9666 36.7839C87.6915 36.7839 85.0401 34.1207 85.0401 30.8309C85.0401 27.541 87.6915 24.8779 90.9666 24.8779Z" fill="white"/>
<path d="M92.1113 40.3348H87.3805C84.1053 40.3348 80.9861 41.5881 78.5947 43.7813L77.8149 42.1625C77.607 41.7447 77.1911 41.4836 76.7752 41.4836H71.9924C71.5765 41.4836 71.2126 41.6925 71.0047 42.0058C70.7967 42.3192 70.7447 42.7369 70.9007 43.1024L75.0077 53.3897H64.5063L62.4269 48.1677C62.2709 47.6977 61.803 47.4366 61.3351 47.4366H57.8C57.1242 47.4366 56.6043 47.9588 56.6043 48.6377V53.3897H50.3139L48.2345 48.1677C48.0785 47.6977 47.6106 47.4366 47.1428 47.4366H43.6077C42.9318 47.4366 42.412 47.9588 42.412 48.6377H38.8769C36.9014 48.6377 35.3418 50.2565 35.3418 52.1886V54.5907C33.3663 54.5907 31.8067 56.2095 31.8067 58.1416V64.7735C30.2471 66.0789 29.3633 68.0111 29.3633 70.0476V78.3505C29.3633 79.0293 29.8831 79.5515 30.559 79.5515H35.4977C36.3295 83.6246 39.9166 86.7056 44.1795 86.7056C48.3904 86.7056 52.0295 83.6769 52.8613 79.5515H75.7355C76.5673 83.6246 80.1543 86.7056 84.4173 86.7056C88.6282 86.7056 92.2673 83.6769 93.099 79.5515H101.625C103.6 79.5515 105.16 77.9327 105.16 76.0006V71.2487C105.16 70.9876 105.108 70.7787 105.056 70.5176C105.108 70.3609 105.16 70.2043 105.16 70.0476V53.3897C105.16 46.1834 99.3375 40.3348 92.1113 40.3348ZM73.76 43.8857H75.9954L80.6222 53.1808L80.7262 53.3897H77.503L73.76 43.8857ZM58.9437 49.8387H60.5034L61.907 53.3897H58.9437V49.8387ZM44.7514 49.8387H46.311L47.7146 53.3897H44.7514V49.8387ZM37.6292 52.2408C37.6292 51.562 38.149 51.0398 38.8249 51.0398H42.36V53.4419H37.6292V52.2408ZM34.0941 58.1416C34.0941 57.4628 34.6139 56.9406 35.2898 56.9406V64.0946H34.0941V58.1416ZM50.6779 78.2983C50.4179 81.6925 47.5586 84.3035 44.1795 84.3035C40.8004 84.3035 37.9411 81.6403 37.6812 78.246C37.6812 78.0894 37.6812 77.9327 37.6812 77.7761C37.6812 74.1729 40.5924 71.2487 44.1795 71.2487C47.7666 71.2487 50.6779 74.1729 50.6779 77.7761C50.6779 77.9327 50.6779 78.0894 50.6779 78.2983ZM90.9156 78.2983C90.6557 81.6925 87.7964 84.3035 84.4173 84.3035C81.0381 84.3035 78.1788 81.6403 77.9189 78.246C77.9189 78.0894 77.9189 77.9327 77.9189 77.7761C77.9189 74.1729 80.8302 71.2487 84.4173 71.2487C88.0043 71.2487 90.9156 74.1729 90.9156 77.7761C90.9676 77.9327 90.9156 78.0894 90.9156 78.2983ZM96.8421 68.8466V77.1494H93.307C93.307 77.0972 93.307 77.045 93.307 76.9928C93.307 76.8361 93.255 76.7317 93.255 76.575C93.255 76.4184 93.203 76.2617 93.203 76.1051C93.151 75.9484 93.151 75.844 93.099 75.6873C93.0471 75.5306 93.0471 75.374 92.9951 75.2695C92.9431 75.1129 92.8911 75.0084 92.8911 74.904C92.8391 74.7473 92.7871 74.6429 92.7351 74.4863C92.6832 74.3818 92.6312 74.2252 92.5792 74.1207C92.5272 73.9641 92.4752 73.8596 92.3712 73.703C92.3192 73.5985 92.2673 73.4419 92.1633 73.3374C92.1113 73.1808 92.0073 73.0763 91.9553 72.9719C91.9034 72.8675 91.7994 72.763 91.7474 72.6586C91.6434 72.5541 91.5914 72.3975 91.4875 72.293C91.3835 72.1886 91.3315 72.0842 91.2275 71.9797C91.1236 71.8753 91.0196 71.7708 90.9156 71.6664C90.8116 71.562 90.7596 71.4575 90.6557 71.4053C90.5517 71.3009 90.4477 71.1964 90.3438 71.092C90.2398 70.9876 90.1358 70.9353 90.0318 70.8309C89.9279 70.7265 89.7719 70.622 89.6679 70.5698C89.5639 70.5176 89.46 70.4131 89.356 70.3609C89.252 70.2565 89.0961 70.2043 88.9401 70.0998C88.8361 70.0476 88.7322 69.9432 88.6282 69.891C88.4722 69.8387 88.3683 69.7343 88.2123 69.6821C88.1083 69.6299 88.0043 69.5776 87.8484 69.5254C87.6924 69.4732 87.5365 69.421 87.3805 69.3688C87.2765 69.3165 87.1726 69.2643 87.0166 69.2643C86.8606 69.2121 86.7047 69.1599 86.4967 69.1599C86.3928 69.1077 86.2888 69.1077 86.1328 69.0554C85.9249 69.0032 85.7689 69.0032 85.561 68.951C85.457 68.951 85.353 68.8988 85.301 68.8988C84.9891 68.8466 84.7292 68.8466 84.4173 68.8466C84.1053 68.8466 83.8454 68.8466 83.5335 68.8988C83.4295 68.8988 83.3255 68.951 83.2735 68.951C83.0656 69.0032 82.8577 69.0032 82.7017 69.0554C82.5977 69.0554 82.4938 69.1077 82.3378 69.1599C82.1818 69.2121 82.0259 69.2121 81.8179 69.2643C81.714 69.3165 81.61 69.3688 81.454 69.3688C81.2981 69.421 81.1421 69.4732 80.9861 69.5254C80.8822 69.5776 80.7782 69.6299 80.6222 69.6821C80.4663 69.7343 80.3623 69.7865 80.2063 69.891C80.1024 69.9432 79.9984 69.9954 79.8944 70.0998C79.7384 70.1521 79.6345 70.2565 79.4785 70.3609C79.3745 70.4131 79.2706 70.5176 79.1666 70.5698C79.0626 70.6742 78.9067 70.7265 78.8027 70.8309C78.6987 70.9353 78.5947 70.9876 78.4908 71.092C78.3868 71.1964 78.2828 71.3009 78.1788 71.4053C78.0749 71.5098 77.9709 71.6142 77.9189 71.6664C77.8149 71.7708 77.711 71.8753 77.607 71.9797C77.503 72.0842 77.451 72.1886 77.3471 72.293C77.2431 72.3975 77.1391 72.5541 77.0871 72.6586C77.0351 72.763 76.9312 72.8675 76.8792 72.9719C76.7752 73.0763 76.7232 73.233 76.6712 73.3374C76.6192 73.4419 76.5673 73.5463 76.4633 73.703C76.4113 73.8596 76.3073 73.9641 76.2553 74.1207C76.2034 74.2252 76.1514 74.3818 76.0994 74.4863C76.0474 74.6429 75.9954 74.7473 75.9434 74.904C75.8914 75.0084 75.8394 75.1651 75.8394 75.2695C75.7875 75.4262 75.7355 75.5829 75.7355 75.6873C75.6835 75.844 75.6835 75.9484 75.6315 76.1051C75.5795 76.2617 75.5795 76.4184 75.5795 76.575C75.5795 76.7317 75.5275 76.8361 75.5275 76.9928C75.5275 77.045 75.5275 77.0972 75.5275 77.1494H53.0173C53.0173 77.0972 53.0173 77.045 53.0173 76.9928C53.0173 76.8361 52.9653 76.7317 52.9653 76.575C52.9653 76.4184 52.9133 76.2617 52.9133 76.1051C52.8613 75.9484 52.8613 75.844 52.8093 75.6873C52.7573 75.5306 52.7573 75.374 52.7053 75.2695C52.6534 75.1129 52.6014 75.0084 52.6014 74.904C52.5494 74.7473 52.4974 74.6429 52.4454 74.4863C52.3934 74.3818 52.3414 74.2252 52.2894 74.1207C52.2375 73.9641 52.1855 73.8596 52.0815 73.703C52.0295 73.5985 51.9775 73.4419 51.8735 73.3374C51.8216 73.1808 51.7176 73.0763 51.6656 72.9719C51.6136 72.8675 51.5096 72.763 51.4577 72.6586C51.3537 72.5541 51.3017 72.3975 51.1977 72.293C51.0937 72.1886 51.0418 72.0842 50.9378 71.9797C50.8338 71.8753 50.7298 71.7708 50.6259 71.6664C50.5219 71.562 50.4699 71.4575 50.3659 71.4053C50.262 71.3009 50.158 71.1964 50.054 71.092C49.95 70.9876 49.8461 70.9353 49.7421 70.8309C49.6381 70.7265 49.4822 70.622 49.3782 70.5698C49.2742 70.5176 49.1702 70.4131 49.0663 70.3609C48.9623 70.2565 48.8063 70.2043 48.6504 70.0998C48.5464 70.0476 48.4424 69.9432 48.3384 69.891C48.1825 69.8387 48.0785 69.7343 47.9226 69.6821C47.8186 69.6299 47.7146 69.5776 47.5586 69.5254C47.4027 69.4732 47.2467 69.421 47.0908 69.3688C46.9868 69.3165 46.8828 69.2643 46.7269 69.2643C46.5709 69.2121 46.4149 69.1599 46.207 69.1599C46.103 69.1077 45.999 69.1077 45.8431 69.0554C45.6351 69.0032 45.4792 69.0032 45.2712 68.951C45.1673 68.951 45.0633 68.8988 45.0113 68.8988C44.6994 68.8466 44.4394 68.8466 44.1275 68.8466C43.8156 68.8466 43.5557 68.8466 43.2437 68.8988C43.1398 68.8988 43.0358 68.951 42.9838 68.951C42.7759 69.0032 42.6199 69.0032 42.412 69.0554C42.308 69.0554 42.204 69.1077 42.0481 69.1599C41.8921 69.2121 41.7361 69.2121 41.5282 69.2643C41.4242 69.3165 41.3202 69.3688 41.1643 69.3688C41.0083 69.421 40.8524 69.4732 40.6964 69.5254C40.5924 69.5776 40.4884 69.6299 40.3325 69.6821C40.1765 69.7343 40.0726 69.7865 39.9166 69.891C39.8126 69.9432 39.7086 69.9954 39.6047 70.0998C39.4487 70.1521 39.3447 70.2565 39.1888 70.3609C39.0848 70.4131 38.9808 70.5176 38.8769 70.5698C38.7729 70.6742 38.6169 70.7265 38.513 70.8309C38.409 70.9353 38.305 70.9876 38.201 71.092C38.0971 71.1964 37.9931 71.3009 37.8891 71.4053C37.7851 71.5098 37.6812 71.6142 37.6292 71.6664C37.5252 71.7708 37.4212 71.8753 37.3173 71.9797C37.2133 72.0842 37.1613 72.1886 37.0573 72.293C36.9533 72.3975 36.8494 72.5541 36.7974 72.6586C36.7454 72.763 36.6414 72.8675 36.5894 72.9719C36.4855 73.0763 36.4335 73.233 36.3815 73.3374C36.3295 73.4419 36.2775 73.5463 36.1735 73.703C36.1216 73.8596 36.0176 73.9641 35.9656 74.1207C35.9136 74.2252 35.8616 74.3818 35.8096 74.4863C35.7577 74.6429 35.7057 74.7473 35.6537 74.904C35.6017 75.0084 35.5497 75.1651 35.5497 75.2695C35.4977 75.4262 35.4457 75.5829 35.4457 75.6873C35.3937 75.844 35.3937 75.9484 35.3418 76.1051C35.2898 76.2617 35.2898 76.4184 35.2898 76.575C35.2898 76.7317 35.2378 76.8361 35.2378 76.9928C35.2378 77.045 35.2378 77.0972 35.2378 77.1494H31.7547V70.0476C31.7547 68.6899 32.3265 67.3844 33.3663 66.4967H36.4855C37.1613 66.4967 37.6812 65.9745 37.6812 65.2957V55.7917H88.3163C90.0318 55.7917 91.6434 56.3139 93.0471 57.2539C91.7474 58.3505 90.9676 59.9693 90.9676 61.7447C90.9676 61.8492 90.9676 61.9536 90.9676 62.0581C91.1236 65.2434 93.6709 67.6977 96.8941 67.6977V68.8466H96.8421ZM89.7719 52.9197L86.9126 50.0476C87.0686 49.9432 87.2245 49.891 87.3805 49.7865C87.4845 49.7343 87.6404 49.6821 87.7444 49.6299C87.9524 49.5254 88.1603 49.4732 88.4202 49.421C88.5242 49.3688 88.6282 49.3688 88.7322 49.3165C89.0961 49.2643 89.408 49.2121 89.7719 49.2121C90.8116 49.2121 91.7994 49.5254 92.6312 49.9954L89.7719 52.9197ZM94.4507 51.562C95.2305 52.5541 95.6984 53.8074 95.6984 55.1651C95.6984 55.4784 95.6464 55.7917 95.6464 56.0528C95.6464 56.1051 95.6464 56.1051 95.6464 56.1573C95.5424 56.0528 95.4385 56.0006 95.3865 55.9484C95.2825 55.844 95.1785 55.7395 95.0226 55.6351C94.8666 55.5306 94.7106 55.4262 94.5547 55.3218C94.4507 55.2173 94.2947 55.1651 94.1908 55.0607C94.0348 54.9562 93.8788 54.8518 93.6709 54.7474C93.5669 54.6951 93.411 54.5907 93.307 54.5385C93.151 54.434 92.9431 54.3818 92.7871 54.2774C92.6312 54.2252 92.5272 54.1729 92.3712 54.1207C92.2673 54.0685 92.1633 54.0685 92.0593 54.0163L94.4507 51.562ZM86.9126 53.3897H84.1573C84.2613 53.1286 84.3133 52.9197 84.4173 52.6586C84.4173 52.6064 84.4692 52.5541 84.4692 52.5019C84.6252 52.1886 84.7812 51.9275 84.9891 51.6664C85.0411 51.6142 85.0411 51.6142 85.0931 51.562L86.9126 53.3897ZM96.8421 65.2957C94.9186 65.2957 93.359 63.7813 93.307 61.8492C93.307 61.797 93.307 61.797 93.307 61.6925C93.307 60.5437 93.8789 59.4471 94.8146 58.7682C94.9186 58.8727 95.0226 59.0293 95.1265 59.186C95.3865 59.4993 95.5944 59.8648 95.7504 60.1782C95.8543 60.3348 95.9063 60.4915 95.9583 60.5959C96.1143 60.857 96.2183 61.1181 96.3222 61.4314C96.3742 61.5359 96.3742 61.5881 96.4262 61.6925C96.5302 62.0581 96.6341 62.4236 96.6861 62.8413C96.6861 62.9458 96.7381 62.998 96.7381 63.1024C96.7901 63.5202 96.8421 63.938 96.8421 64.3557V65.2957ZM102.769 76.0006C102.769 76.6795 102.249 77.2017 101.573 77.2017H99.1815V74.7996H102.717V76.0006H102.769ZM102.769 72.4497H99.2335V70.0476H101.625C102.041 70.0476 102.457 70.2565 102.665 70.6742C102.769 70.8309 102.821 71.0398 102.821 71.2487V72.4497H102.769ZM102.769 67.6977H99.2335V64.4079C99.2335 63.9902 99.1815 63.5724 99.1815 63.2069C99.1815 63.1024 99.1815 63.0502 99.1295 62.9458C99.0775 62.528 99.0255 62.1625 98.9216 61.7447H102.821V67.6977H102.769ZM102.769 59.3427H97.9858C97.8298 59.0293 97.6219 58.6638 97.4139 58.3505C97.4139 58.2983 97.4659 58.246 97.4659 58.1938C97.5179 58.0894 97.5179 57.985 97.5699 57.8805C97.6219 57.6716 97.7259 57.4628 97.7779 57.3061C97.8298 57.2017 97.8298 57.0972 97.8298 56.9928C97.8818 56.7839 97.9338 56.575 97.9338 56.3662C97.9338 56.2617 97.9858 56.1573 97.9858 56.1051C98.0378 55.7917 98.0378 55.4784 98.0378 55.1651C98.0378 52.763 96.9981 50.622 95.3865 49.1077C95.3345 49.0554 95.3345 49.0032 95.2825 49.0032C95.2305 48.951 95.1265 48.8988 95.0745 48.8466C93.6189 47.5933 91.7474 46.8622 89.7199 46.8622C89.356 46.8622 89.0441 46.9145 88.6802 46.9145C88.5762 46.9145 88.5242 46.9145 88.4202 46.9667C88.1083 47.0189 87.7964 47.0711 87.4845 47.1756H87.4325C87.1206 47.28 86.8087 47.3844 86.4967 47.5411C86.3928 47.5933 86.3408 47.5933 86.2368 47.6455C85.9769 47.75 85.7169 47.9066 85.457 48.0633C85.405 48.0633 85.405 48.1155 85.353 48.1155C85.0931 48.2722 84.8332 48.481 84.5732 48.6899C84.5212 48.7421 84.4692 48.7421 84.4692 48.7944C84.3653 48.8466 84.2613 48.8988 84.1573 49.0032C84.1053 49.0554 84.1053 49.1077 84.0534 49.1599C83.9494 49.2643 83.8454 49.3688 83.7414 49.4732C83.6894 49.5254 83.6894 49.5254 83.6375 49.5776C83.4295 49.8387 83.2216 50.0998 83.0136 50.3609C82.9616 50.4132 82.9096 50.5176 82.8577 50.5698C82.7017 50.7787 82.5457 51.0398 82.4418 51.3009C82.4418 51.3531 82.3898 51.3531 82.3898 51.4053L79.6865 45.9745C81.662 43.8857 84.4692 42.6847 87.3805 42.6847H92.1113C97.9858 42.6847 102.769 47.4889 102.769 53.3897V59.3427Z" fill="white"/>
<path d="M41.6849 43.8857H64.4031C66.6385 43.8857 68.458 42.058 68.458 39.8126V30.0998C68.458 27.8544 66.6385 26.0267 64.4031 26.0267H41.6849C39.4494 26.0267 37.6299 27.8544 37.6299 30.0998V39.8648C37.6299 42.058 39.4494 43.8857 41.6849 43.8857ZM40.0213 30.0998C40.0213 29.1598 40.7491 28.4288 41.6849 28.4288H64.4031C65.3388 28.4288 66.0666 29.1598 66.0666 30.0998V39.8648C66.0666 40.8048 65.3388 41.5358 64.4031 41.5358H41.6849C40.7491 41.5358 40.0213 40.8048 40.0213 39.8648V30.0998Z" fill="white"/>
<path d="M44.7514 33.1807H61.3351C62.011 33.1807 62.5308 32.6585 62.5308 31.9797C62.5308 31.3008 62.011 30.7786 61.3351 30.7786H44.7514C44.0755 30.7786 43.5557 31.3008 43.5557 31.9797C43.5557 32.6585 44.1275 33.1807 44.7514 33.1807Z" fill="white"/>
<path d="M44.7514 39.1337H61.3351C62.011 39.1337 62.5308 38.6115 62.5308 37.9326C62.5308 37.2538 62.011 36.7316 61.3351 36.7316H44.7514C44.0755 36.7316 43.5557 37.2538 43.5557 37.9326C43.5557 38.6115 44.1275 39.1337 44.7514 39.1337Z" fill="white"/>
<path d="M29.8161 105.603H27.4308L25.1664 101.593H24.1985V105.603H22.1416V95.3077H25.9961C26.7912 95.3077 27.4653 95.4466 28.0184 95.7243C28.5716 96.0021 28.9864 96.3841 29.2802 96.8529C29.5568 97.339 29.6951 97.8599 29.6951 98.4502C29.6951 99.1273 29.5049 99.735 29.1074 100.291C28.7098 100.829 28.1394 101.211 27.3616 101.419L29.8161 105.603ZM24.1985 97.0265V100.048H25.9097C26.4628 100.048 26.8776 99.9086 27.1542 99.6482C27.4308 99.3704 27.569 99.0058 27.569 98.5197C27.569 98.0509 27.4308 97.6863 27.1542 97.4258C26.8776 97.1654 26.4628 97.0439 25.9097 97.0439H24.1985V97.0265ZM39.1153 101.332C39.1153 101.627 39.098 101.888 39.0634 102.131H33.1175C33.1693 102.721 33.3767 103.19 33.7397 103.52C34.1027 103.85 34.5521 104.023 35.0706 104.023C35.8312 104.023 36.3843 103.694 36.6954 103.034H38.9079C38.6659 103.815 38.2165 104.475 37.5597 104.978C36.8855 105.482 36.0732 105.742 35.1052 105.742C34.3274 105.742 33.6187 105.569 32.9965 105.221C32.3742 104.874 31.8902 104.388 31.5445 103.746C31.1988 103.103 31.026 102.374 31.026 101.541C31.026 100.69 31.1988 99.9607 31.5445 99.3183C31.8902 98.6759 32.3742 98.1898 32.9792 97.8425C33.6014 97.4953 34.3101 97.3217 35.1052 97.3217C35.883 97.3217 36.5744 97.4953 37.1794 97.8252C37.7844 98.155 38.2683 98.6412 38.5967 99.2489C38.9424 99.8392 39.1153 100.551 39.1153 101.332ZM33.1347 100.742H36.9893C36.972 100.204 36.7818 99.7871 36.4189 99.4572C36.0386 99.1447 35.5892 98.9711 35.0534 98.9711C34.5521 98.9711 34.12 99.1273 33.7743 99.4398C33.4113 99.7697 33.2039 100.204 33.1347 100.742ZM42.676 98.6065C42.9352 98.2245 43.2982 97.912 43.7649 97.6689C44.2316 97.4258 44.7674 97.2869 45.3551 97.2869C46.0465 97.2869 46.686 97.4606 47.2391 97.8078C47.8095 98.155 48.2417 98.6412 48.5701 99.2662C48.8985 99.9086 49.0713 100.638 49.0713 101.471C49.0713 102.305 48.9158 103.051 48.5701 103.694C48.2417 104.336 47.7923 104.839 47.2391 105.187C46.686 105.534 46.0465 105.725 45.3551 105.725C44.7501 105.725 44.2316 105.603 43.7822 105.36C43.3328 105.117 42.9525 104.805 42.676 104.44V109.493H40.6191V97.4258H42.676V98.6065ZM46.9626 101.489C46.9626 101.002 46.8589 100.568 46.6515 100.204C46.444 99.8392 46.1848 99.5787 45.8564 99.3878C45.528 99.1968 45.1823 99.11 44.802 99.11C44.4217 99.11 44.076 99.2141 43.7476 99.3878C43.4192 99.5787 43.1599 99.8565 42.9525 100.221C42.7451 100.586 42.6587 101.02 42.6587 101.506C42.6587 101.992 42.7624 102.426 42.9525 102.791C43.1599 103.155 43.4192 103.433 43.7476 103.624C44.076 103.815 44.4217 103.919 44.802 103.919C45.1823 103.919 45.5452 103.815 45.8564 103.624C46.1848 103.433 46.444 103.155 46.6515 102.791C46.8762 102.426 46.9626 101.992 46.9626 101.489ZM50.0393 101.489C50.0393 100.655 50.2121 99.926 50.5405 99.2836C50.869 98.6412 51.3184 98.155 51.8715 97.8078C52.4419 97.4606 53.0641 97.2869 53.7555 97.2869C54.3605 97.2869 54.8963 97.4085 55.3457 97.6515C55.7951 97.8946 56.1581 98.2071 56.4347 98.5891V97.4258H58.5088V105.586H56.4347V104.388C56.1754 104.77 55.8124 105.083 55.3457 105.343C54.879 105.586 54.3432 105.725 53.7382 105.725C53.0468 105.725 52.4246 105.551 51.8715 105.187C51.3011 104.839 50.869 104.336 50.5405 103.694C50.1949 103.069 50.0393 102.322 50.0393 101.489ZM56.4347 101.523C56.4347 101.02 56.331 100.586 56.1408 100.239C55.9507 99.8739 55.6741 99.6135 55.3457 99.4051C55.0173 99.2141 54.6543 99.1273 54.2741 99.1273C53.8938 99.1273 53.5481 99.2141 53.2197 99.4051C52.8913 99.5961 52.632 99.8565 52.4419 100.221C52.2345 100.586 52.1307 101.002 52.1307 101.506C52.1307 102.009 52.2345 102.426 52.4419 102.791C52.6493 103.155 52.9086 103.45 53.237 103.641C53.5654 103.832 53.9111 103.937 54.2913 103.937C54.6716 103.937 55.0346 103.832 55.363 103.641C55.6914 103.45 55.968 103.173 56.1581 102.825C56.331 102.443 56.4347 102.027 56.4347 101.523ZM61.5683 96.4536C61.2053 96.4536 60.9114 96.332 60.6694 96.1063C60.4275 95.8806 60.3065 95.5854 60.3065 95.2382C60.3065 94.891 60.4275 94.6132 60.6694 94.3701C60.9114 94.1444 61.2053 94.0229 61.5683 94.0229C61.9312 94.0229 62.2251 94.1444 62.4671 94.3701C62.7091 94.5958 62.8301 94.891 62.8301 95.2382C62.8301 95.5854 62.7091 95.8632 62.4671 96.1063C62.2251 96.3494 61.914 96.4536 61.5683 96.4536ZM60.5139 97.4258H62.5708V105.586H60.5139V97.4258ZM66.65 98.6933C66.9093 98.2592 67.255 97.9293 67.6871 97.6689C68.1192 97.4258 68.6032 97.3043 69.1563 97.3043V99.4746H68.6205C67.9809 99.4746 67.4797 99.6308 67.1513 99.926C66.8228 100.239 66.6673 100.759 66.6673 101.523V105.586H64.6104V97.4258H66.6673V98.6933H66.65ZM73.6503 105.742C72.9762 105.742 72.3885 105.621 71.8527 105.378C71.3169 105.135 70.9021 104.805 70.5909 104.405C70.2798 103.989 70.107 103.537 70.0897 103.034H72.1639C72.1984 103.346 72.354 103.607 72.6305 103.815C72.9071 104.023 73.2355 104.128 73.6331 104.128C74.0306 104.128 74.3245 104.041 74.5492 103.885C74.7739 103.728 74.8776 103.52 74.8776 103.277C74.8776 103.016 74.7393 102.808 74.48 102.687C74.2207 102.548 73.7886 102.409 73.2009 102.253C72.596 102.096 72.0947 101.957 71.7144 101.801C71.3342 101.645 70.9885 101.402 70.7119 101.072C70.4354 100.742 70.2971 100.308 70.2971 99.7524C70.2971 99.3009 70.4181 98.8843 70.6774 98.5197C70.9366 98.1377 71.3169 97.8425 71.8009 97.6342C72.2848 97.4258 72.8552 97.3043 73.5121 97.3043C74.48 97.3043 75.2578 97.5474 75.8282 98.0335C76.3986 98.5197 76.727 99.1794 76.7789 99.9954H74.8084C74.7739 99.6656 74.6356 99.4051 74.4109 99.2141C74.1689 99.0232 73.8578 98.9363 73.4429 98.9363C73.0627 98.9363 72.7861 99.0058 72.5787 99.1447C72.3713 99.2836 72.2848 99.4746 72.2848 99.7176C72.2848 99.9954 72.4231 100.204 72.6997 100.343C72.9762 100.482 73.3911 100.62 73.9788 100.777C74.5664 100.933 75.0504 101.072 75.4307 101.228C75.8109 101.384 76.1394 101.627 76.4159 101.957C76.6925 102.287 76.848 102.721 76.848 103.26C76.848 103.728 76.7098 104.162 76.4505 104.527C76.1912 104.909 75.8282 105.187 75.327 105.395C74.8603 105.621 74.2899 105.742 73.6503 105.742ZM78.0234 100.447C78.0234 99.4398 78.2481 98.5197 78.7148 97.721C79.1642 96.9223 79.7864 96.2973 80.5815 95.8459C81.3766 95.3945 82.2582 95.1688 83.2261 95.1688C84.3669 95.1688 85.3694 95.4639 86.2337 96.0542C87.0979 96.6445 87.7029 97.4606 88.0313 98.5023H85.6633C85.4213 98.0161 85.0929 97.6342 84.6781 97.3911C84.2459 97.148 83.762 97.0265 83.2088 97.0265C82.6039 97.0265 82.0853 97.1654 81.6186 97.4432C81.1519 97.721 80.789 98.1203 80.5297 98.6238C80.2704 99.1273 80.1321 99.735 80.1321 100.429C80.1321 101.107 80.2704 101.697 80.5297 102.218C80.789 102.739 81.1519 103.138 81.6186 103.416C82.0853 103.694 82.6212 103.832 83.2088 103.832C83.762 103.832 84.2632 103.711 84.6781 103.45C85.1102 103.207 85.4386 102.825 85.6633 102.339H88.0313C87.6856 103.398 87.0979 104.214 86.2337 104.787C85.3694 105.378 84.3669 105.673 83.2088 105.673C82.2236 105.673 81.3421 105.447 80.5643 104.996C79.7692 104.544 79.1469 103.937 78.6975 103.138C78.2654 102.357 78.0234 101.454 78.0234 100.447ZM89.2758 101.489C89.2758 100.655 89.4487 99.926 89.7771 99.2836C90.1055 98.6412 90.5549 98.155 91.108 97.8078C91.6611 97.4606 92.3007 97.2869 92.9921 97.2869C93.597 97.2869 94.1329 97.4085 94.5823 97.6515C95.0317 97.8946 95.3946 98.2071 95.6712 98.5891V97.4258H97.7454V105.586H95.6712V104.388C95.4119 104.77 95.0489 105.083 94.5823 105.343C94.1156 105.586 93.5797 105.725 92.9748 105.725C92.2834 105.725 91.6611 105.551 91.108 105.187C90.5376 104.839 90.1055 104.336 89.7771 103.694C89.4314 103.069 89.2758 102.322 89.2758 101.489ZM95.6712 101.523C95.6712 101.02 95.5675 100.586 95.3773 100.239C95.1872 99.8739 94.9107 99.6135 94.5823 99.4051C94.2538 99.2141 93.8909 99.1273 93.5106 99.1273C93.1303 99.1273 92.7846 99.2141 92.4562 99.4051C92.1278 99.5961 91.8685 99.8565 91.6784 100.221C91.471 100.586 91.3673 101.002 91.3673 101.506C91.3673 102.009 91.471 102.426 91.6784 102.791C91.8858 103.155 92.1451 103.45 92.4735 103.641C92.8019 103.832 93.1476 103.937 93.5279 103.937C93.9081 103.937 94.2711 103.832 94.5995 103.641C94.9279 103.45 95.2045 103.173 95.3946 102.825C95.5848 102.443 95.6712 102.027 95.6712 101.523ZM101.807 98.6933C102.067 98.2592 102.412 97.9293 102.844 97.6689C103.277 97.4258 103.76 97.3043 104.314 97.3043V99.4746H103.76C103.121 99.4746 102.62 99.6308 102.291 99.926C101.963 100.239 101.807 100.759 101.807 101.523V105.586H99.7504V97.4258H101.807V98.6933ZM105.161 101.489C105.161 100.655 105.316 99.926 105.645 99.2836C105.973 98.6412 106.422 98.155 106.993 97.8078C107.563 97.4606 108.185 97.2869 108.894 97.2869C109.43 97.2869 109.931 97.4085 110.398 97.6342C110.882 97.8599 111.262 98.1724 111.539 98.5544V94.6826H113.63V105.603H111.539V104.388C111.279 104.787 110.934 105.117 110.467 105.36C110 105.603 109.482 105.725 108.86 105.725C108.168 105.725 107.546 105.551 106.975 105.187C106.405 104.839 105.956 104.336 105.627 103.694C105.316 103.069 105.161 102.322 105.161 101.489ZM111.556 101.523C111.556 101.02 111.452 100.586 111.262 100.239C111.072 99.8739 110.795 99.6135 110.467 99.4051C110.139 99.2141 109.776 99.1273 109.395 99.1273C109.015 99.1273 108.669 99.2141 108.341 99.4051C108.013 99.5961 107.753 99.8565 107.546 100.221C107.338 100.586 107.252 101.002 107.252 101.506C107.252 102.009 107.356 102.426 107.546 102.791C107.753 103.155 108.013 103.45 108.341 103.641C108.669 103.832 109.015 103.937 109.395 103.937C109.776 103.937 110.139 103.832 110.467 103.641C110.795 103.45 111.072 103.173 111.262 102.825C111.47 102.443 111.556 102.027 111.556 101.523Z" fill="white"/>
</svg>
