<svg width="22" height="19" viewBox="0 0 22 19" fill="none" xmlns="http://www.w3.org/2000/svg">
<g clip-path="url(#clip0_60_1686)">
<path d="M12.8532 1.02051C14.497 1.02051 16.1614 1.02051 17.8052 1.02051C18.0312 1.02051 18.1134 0.956302 18.0929 0.720868C18.0929 0.378419 18.2367 0.25 18.586 0.25C19.2847 0.25 19.9833 0.25 20.6614 0.25C20.9901 0.25 21.134 0.378419 21.134 0.742271C21.134 2.51873 21.134 4.27378 21.134 6.05024C21.134 6.39269 20.9901 6.52111 20.6819 6.52111C19.9833 6.52111 19.2847 6.52111 18.586 6.52111C18.2573 6.52111 18.1134 6.39269 18.134 6.05024C18.1545 5.8148 18.0723 5.72919 17.8258 5.72919C17.2299 5.75059 16.634 5.72919 16.0381 5.72919C15.771 5.72919 15.771 5.72919 15.8737 5.98603C16.4901 7.35583 16.7573 8.78983 16.634 10.2666C16.3258 13.5413 14.7641 15.9599 11.908 17.3939C6.97645 19.8766 1.05864 16.5806 0.23672 10.9301C-0.441362 6.26427 2.53809 1.96225 6.99699 1.14893C7.40795 1.08472 7.81891 1.04191 8.22987 1.04191C9.77097 1.04191 11.3121 1.02051 12.8532 1.02051ZM11.0038 5.75059C11.0244 5.83621 11.086 5.85761 11.1271 5.87901C12.5038 7.03478 13.0792 8.51159 12.8532 10.3309C12.5449 12.7708 10.3052 14.5901 7.9422 14.3118C5.62028 14.055 3.89425 12.0431 3.89425 9.62455C3.89425 7.01338 5.88741 4.93728 8.39425 4.93728C10.7984 4.93728 13.1819 4.93728 15.586 4.93728C15.8121 4.93728 15.8943 4.87307 15.8737 4.63763C15.8532 3.82432 15.8737 2.9896 15.8737 2.17628C15.8737 1.83383 15.8737 1.83383 15.5449 1.83383C13.1819 1.83383 10.8395 1.83383 8.47645 1.83383C7.12028 1.85523 5.84631 2.17628 4.67508 2.86118C1.79836 4.57342 0.401103 7.93371 1.03809 11.187C1.81891 15.2536 5.47645 17.929 9.36001 17.3725C11.3532 17.0942 12.997 16.1097 14.2504 14.4617C15.4217 12.8992 15.9354 11.1228 15.8121 9.13228C15.7504 8.01932 15.4627 6.97057 14.9696 5.98603C14.8874 5.8148 14.7641 5.72919 14.5792 5.72919C13.7162 5.75059 12.8737 5.72919 12.0107 5.72919C11.6819 5.75059 11.3326 5.75059 11.0038 5.75059ZM20.3532 3.41766C20.3532 2.71136 20.3532 2.02646 20.3532 1.32015C20.3532 1.10612 20.2915 1.04191 20.1066 1.06332C19.7778 1.08472 19.4285 1.06332 19.0997 1.06332C18.9559 1.06332 18.8943 1.10612 18.8943 1.27735C18.8943 2.68995 18.8943 4.10256 18.8943 5.51516C18.8943 5.68639 18.9559 5.72919 19.0997 5.72919C19.4285 5.72919 19.7778 5.70779 20.1066 5.72919C20.3121 5.75059 20.3737 5.64358 20.3737 5.45095C20.3532 4.76605 20.3532 4.08115 20.3532 3.41766ZM18.1134 3.37485C18.1134 2.94679 18.1134 2.49732 18.1134 2.06926C18.1134 1.89804 18.0723 1.83383 17.908 1.83383C17.5586 1.83383 17.2093 1.83383 16.86 1.83383C16.6956 1.83383 16.6545 1.91944 16.6545 2.06926C16.6545 2.94679 16.6545 3.82432 16.6545 4.70184C16.6545 4.89447 16.7162 4.93728 16.8806 4.93728C17.2093 4.93728 17.5381 4.91587 17.8669 4.93728C18.0518 4.93728 18.134 4.89447 18.1134 4.68044C18.0929 4.25238 18.1134 3.82432 18.1134 3.37485ZM9.11343 9.62455C9.11343 9.2393 8.74357 8.85404 8.37371 8.85404C8.00384 8.85404 7.65453 9.2179 7.65453 9.60315C7.65453 9.98841 8.02439 10.3737 8.39425 10.3737C8.76412 10.3737 9.11343 10.0098 9.11343 9.62455ZM8.78467 13.049C8.78467 13.4771 8.78467 13.4771 9.15453 13.4129C9.54494 13.3273 9.93535 13.1775 10.2847 12.9634C10.7573 12.6638 10.7573 12.6638 10.3669 12.2785C10.2641 12.1715 10.1819 12.1501 10.0586 12.2357C9.77097 12.4498 9.4422 12.621 9.07234 12.6852C8.82576 12.728 8.72302 12.835 8.78467 13.049ZM8.00384 13.0919C8.00384 12.7494 8.00384 12.7494 7.83946 12.7066C7.4285 12.621 7.03809 12.4498 6.68877 12.1929C6.62713 12.1501 6.54494 12.1073 6.48329 12.1929C6.36001 12.3427 6.17508 12.4284 6.11343 12.6424C6.11343 12.6638 6.15453 12.7066 6.19562 12.728C6.68877 13.1133 7.24357 13.3273 7.83946 13.4343C7.96275 13.4557 8.02439 13.3915 8.00384 13.2631C8.00384 13.2203 8.00384 13.1561 8.00384 13.0919ZM11.7436 10.0312C11.3943 10.0312 11.3943 10.0312 11.3121 10.3737C11.2504 10.6519 11.1477 10.9087 11.0244 11.1442C10.7984 11.5722 10.7984 11.5508 11.1271 11.8933C11.271 12.0431 11.3326 12.0003 11.4354 11.8505C11.723 11.401 11.9285 10.9087 12.0312 10.3951C12.0929 10.0312 12.0929 10.0312 11.7436 10.0312ZM11.6819 9.2179C12.1134 9.2179 12.1134 9.21789 12.0312 8.83264C11.949 8.42598 11.8258 8.04073 11.5997 7.67687C11.2093 7.03478 11.3326 7.1632 10.9011 7.59126C10.7984 7.67687 10.7984 7.74108 10.8806 7.8481C11.086 8.16914 11.271 8.51159 11.3121 8.87545C11.3532 9.15369 11.4559 9.2821 11.6819 9.2179ZM5.06549 9.2179C5.39425 9.2179 5.39425 9.2179 5.4559 8.89685C5.53809 8.533 5.68193 8.19055 5.8874 7.8695C5.9285 7.80529 6.01069 7.71968 5.9285 7.63407C5.78467 7.50565 5.68193 7.31302 5.49699 7.22741C5.47645 7.22741 5.43535 7.27021 5.4148 7.29162C5.04494 7.80529 4.81891 8.38317 4.71617 9.02527C4.69562 9.15369 4.75727 9.19649 4.88056 9.19649C4.9422 9.21789 5.00384 9.2179 5.06549 9.2179ZM8.78467 6.17866C8.72302 6.43549 8.84631 6.54251 9.11343 6.58531C9.38056 6.62812 9.62713 6.73514 9.85316 6.88496C10.2641 7.12039 10.2641 7.12039 10.5929 6.75654C10.6956 6.62812 10.6751 6.58532 10.5723 6.4997C10.1408 6.17866 9.64768 5.94322 9.13398 5.83621C8.78467 5.772 8.78467 5.772 8.78467 6.17866ZM8.00384 6.17866C8.00384 5.75059 8.00384 5.75059 7.63398 5.83621C7.22302 5.92182 6.85316 6.07164 6.48329 6.28567C6.01069 6.58532 6.01069 6.56391 6.4011 6.97057C6.50384 7.07759 6.58603 7.09899 6.70932 6.99197C6.99699 6.77794 7.32576 6.62812 7.65453 6.56391C7.92165 6.52111 8.06549 6.43549 8.00384 6.17866ZM5.08603 10.0312C4.67508 10.0312 4.67508 10.0312 4.75727 10.4165C4.83946 10.8445 4.9833 11.2298 5.18877 11.615C5.47645 12.1073 5.4559 12.1073 5.84631 11.7007C5.9696 11.5722 5.94905 11.508 5.86686 11.3796C5.66138 11.08 5.51754 10.7375 5.4559 10.3951C5.4148 10.0954 5.31206 9.967 5.08603 10.0312ZM8.78467 11.508C8.78467 11.9575 8.78467 11.9575 9.17508 11.7863C9.19562 11.7649 9.23672 11.7649 9.25727 11.7435C9.68878 11.5508 9.66823 11.5508 9.36001 11.2084C9.21617 11.0586 9.09289 10.9944 8.90795 11.1014C8.72302 11.2084 8.80521 11.3796 8.78467 11.508ZM8.78467 7.71968C8.78467 7.76249 8.78467 7.78389 8.78467 7.82669C8.76412 8.01932 8.82576 8.10493 8.99014 8.19055C9.15453 8.27616 9.23672 8.16914 9.31891 8.06213C9.68878 7.67687 9.68878 7.67687 9.15453 7.46284C8.78467 7.31302 8.78467 7.31302 8.78467 7.71968ZM8.00384 11.5294C8.00384 11.4866 8.00384 11.4652 8.00384 11.4224C8.02439 11.2298 7.96275 11.1442 7.79836 11.0586C7.63398 10.9729 7.55179 11.08 7.4696 11.187C7.09973 11.5722 7.09973 11.5722 7.63398 11.7863C7.9833 11.9361 8.00384 11.9361 8.00384 11.5294ZM6.60658 10.0312C6.17508 10.0312 6.17508 10.0312 6.31891 10.4379C6.33946 10.4593 6.33946 10.5021 6.36001 10.5235C6.54494 10.9729 6.54494 10.9515 6.87371 10.6305C7.01754 10.4807 7.07919 10.3737 6.97645 10.1596C6.87371 9.967 6.70932 10.0526 6.60658 10.0312ZM8.00384 7.74108C8.00384 7.31302 8.00384 7.31302 7.61343 7.44144C7.59289 7.46284 7.55179 7.46284 7.53124 7.48424C7.09973 7.67687 7.09973 7.67687 7.4285 8.04073C7.57234 8.21195 7.69562 8.25476 7.88056 8.12634C8.06549 8.04072 7.96275 7.8695 8.00384 7.74108ZM6.56549 9.2179C6.60658 9.2179 6.62713 9.2179 6.66823 9.2179C6.85316 9.2393 6.93535 9.17509 7.01754 9.00386C7.09973 8.83264 6.99699 8.74703 6.89425 8.66141C6.52439 8.27616 6.52439 8.27616 6.31891 8.83264C6.17508 9.19649 6.17508 9.2179 6.56549 9.2179ZM10.1819 9.2179C10.6134 9.2179 10.6134 9.21789 10.4696 8.81124C10.449 8.78983 10.449 8.74703 10.4285 8.72562C10.2436 8.29756 10.2436 8.29756 9.9148 8.61861C9.77097 8.76843 9.70932 8.89685 9.81206 9.08948C9.9148 9.2821 10.0792 9.19649 10.1819 9.2179ZM10.5518 10.1596C10.5929 10.0526 10.5312 10.0312 10.4285 10.0312C10.3258 10.0312 10.2025 10.0526 10.0997 10.0312C9.9148 10.0098 9.85316 10.1168 9.77097 10.2666C9.68878 10.4379 9.79152 10.5021 9.87371 10.5877C9.9559 10.6733 10.0381 10.7375 10.0997 10.8231C10.1614 10.8873 10.223 10.9087 10.2847 10.8231C10.408 10.6091 10.4901 10.4165 10.5518 10.1596Z" fill="#2A66FF"/>
</g>
<defs>
<clipPath id="clip0_60_1686">
<rect width="21" height="18" fill="white" transform="translate(0.133789 0.25)"/>
</clipPath>
</defs>
</svg>
