<svg width="17" height="17" viewBox="0 0 17 17" fill="none" xmlns="http://www.w3.org/2000/svg">
<g clip-path="url(#clip0_60_1611)">
<path d="M10.212 5.92898C10.9135 5.58594 11.6113 5.24289 12.3128 4.90375C13.1495 4.50224 12.8389 4.52173 13.7121 4.83358C13.924 4.90765 14.136 4.98951 14.3479 5.06748C14.8192 5.24289 14.8922 5.59763 14.5378 5.97575C13.8071 6.75929 13.0764 7.53893 12.3457 8.32246C11.5675 9.15668 10.7893 9.98699 10.0111 10.8173C9.31326 11.5619 8.50217 11.7646 7.57051 11.402C6.05794 10.8173 4.54537 10.2365 3.03645 9.65175C2.01711 9.25803 1.44715 8.34585 1.54214 7.19589C1.56772 6.89183 1.67367 6.59167 1.77232 6.3032C2.2692 4.83748 2.77705 3.36397 3.27758 1.89435C3.29585 1.84757 3.30681 1.7969 3.32873 1.73063C2.76243 1.50843 2.19978 1.29013 1.61887 1.06404C1.58599 1.15369 1.55676 1.23556 1.52753 1.31742C1.3485 1.83978 1.16948 2.36213 0.990456 2.88449C0.749321 3.59006 0.913731 4.06564 1.5458 4.44377C1.4508 4.72444 1.35581 5.0051 1.25351 5.30916C0.650675 5.05578 0.263398 4.60749 0.0770666 3.96039C-0.0435008 3.53159 -0.0142723 3.10279 0.128216 2.68178C0.391272 1.91774 0.650675 1.1498 0.913731 0.381854C1.0343 0.0310165 1.2462 -0.0781327 1.57137 0.0505075C4.1179 1.03675 6.66443 2.02299 9.21096 3.01703C10.0476 3.34058 10.5043 4.05395 10.4386 4.97392C10.413 5.28967 10.2961 5.59763 10.212 5.92898ZM2.79897 6.03033C2.69667 6.33049 2.59802 6.61506 2.49937 6.89962C2.2217 7.72214 2.55052 8.47449 3.32508 8.77465C4.83765 9.35938 6.35022 9.94021 7.85914 10.5288C8.44737 10.7588 8.9479 10.638 9.38998 10.1624C10.7162 8.73567 12.0461 7.32063 13.376 5.89779C13.4162 5.85491 13.4564 5.80813 13.4966 5.76135C13.2299 5.59373 12.9924 5.58204 12.7038 5.73017C11.6881 6.25642 10.6541 6.7437 9.62746 7.24656C9.41556 7.35181 9.21827 7.32843 9.08674 7.18419C8.9406 7.02437 8.92233 6.83725 8.99905 6.62675C9.16712 6.16677 9.32787 5.70678 9.48498 5.24679C9.52151 5.13764 9.55805 5.0246 9.56535 4.91155C9.60189 4.43987 9.37537 4.08513 8.9406 3.91361C7.92856 3.5121 6.91287 3.11838 5.89718 2.72856C5.32357 2.50637 4.74997 2.28417 4.15444 2.05418C3.80004 3.09499 3.4493 4.11632 3.09856 5.14934C4.20193 5.57814 5.28339 5.99524 6.38311 6.42405C6.28081 6.72421 6.18216 7.00877 6.08351 7.30114C4.97649 6.87624 3.89503 6.45523 2.79897 6.03033Z" fill="#2A66FF"/>
<path d="M16.9488 14.1426C16.9488 15.776 15.6956 17.0624 14.1684 17C12.9262 16.9493 11.8046 15.8344 11.6475 14.513C11.5854 13.975 11.6548 13.476 11.874 12.9849C12.539 11.488 13.1893 9.98326 13.8433 8.47856C13.9346 8.27195 14.0479 8.11213 14.2854 8.11213C14.5228 8.11213 14.6361 8.26806 14.7274 8.47856C15.4034 10.0339 16.0902 11.5854 16.7552 13.1486C16.883 13.4526 16.9232 13.8035 17 14.1309C16.9817 14.1309 16.9671 14.1387 16.9488 14.1426ZM14.289 9.6909C14.2561 9.75716 14.2415 9.78445 14.2269 9.81174C13.6825 11.0553 13.1418 12.2988 12.6011 13.5462C12.5718 13.6164 12.5463 13.6904 12.5317 13.7645C12.2869 15.0821 13.4049 16.2866 14.6398 16.0255C15.955 15.7448 16.3387 14.2167 15.9149 13.402C15.6518 12.8952 15.4472 12.3495 15.217 11.8193C14.9138 11.1215 14.6069 10.4238 14.289 9.6909Z" fill="#2A66FF"/>
</g>
<defs>
<clipPath id="clip0_60_1611">
<rect width="17" height="17" fill="white"/>
</clipPath>
</defs>
</svg>
