<svg width="18" height="17" viewBox="0 0 18 17" fill="none" xmlns="http://www.w3.org/2000/svg">
<path d="M10.1475 8.76929C10.214 8.8006 10.2806 8.83191 10.3305 8.87888C11.3119 9.7869 12.2933 10.6949 13.2414 11.6343C13.4909 11.8847 13.7571 12.01 14.1064 12.0413C14.4557 12.0726 14.805 12.1352 15.1544 12.1979C15.2375 12.2135 15.3373 12.2605 15.4039 12.3231C15.9528 12.8241 16.4851 13.3251 17.0174 13.8417C17.1837 13.9983 17.1837 14.1392 17.0174 14.2957C16.2023 15.0628 15.3872 15.83 14.5722 16.5971C14.3892 16.7693 14.2561 16.7693 14.0731 16.5971C13.5409 16.0961 13.0086 15.5951 12.4763 15.0941C12.2933 14.9376 12.3266 14.7184 12.2933 14.5149C12.2268 14.1705 12.1769 13.8104 12.1103 13.466C12.0937 13.419 12.0771 13.3564 12.0272 13.3251C10.8794 12.3074 9.78156 11.2585 8.68371 10.2253C8.66707 10.2096 8.65044 10.2096 8.63381 10.1939C8.5839 10.2253 8.55064 10.2722 8.50073 10.3035C7.45279 11.2898 6.42148 12.2761 5.37353 13.2468C5.17392 13.4346 5.19056 13.6382 5.14065 13.8574C5.07412 14.1861 5.02422 14.5305 4.95768 14.8593C4.94105 14.9532 4.89114 15.0472 4.82461 15.1098C4.29232 15.6108 3.77666 16.1118 3.24437 16.6127C3.0614 16.7849 2.91169 16.7849 2.72872 16.6127C1.91365 15.8456 1.09858 15.0785 0.283512 14.3114C0.100537 14.1391 0.100537 14.0139 0.283512 13.8417C0.815801 13.3407 1.34809 12.8397 1.88038 12.3388C2.06336 12.1665 2.29623 12.1979 2.51247 12.1509C2.87842 12.0883 3.24437 12.0413 3.61032 11.9787C3.66022 11.963 3.72676 11.9474 3.76003 11.9004C4.84124 10.8515 5.95572 9.81821 7.05357 8.76929C7.05357 8.76929 7.0702 8.75363 7.08684 8.72232C7.05357 8.69101 7.0203 8.64404 6.9704 8.61273C5.92245 7.62643 4.87451 6.65578 3.8432 5.65383C3.66022 5.48162 3.44398 5.48162 3.22774 5.4503C2.86179 5.38768 2.49584 5.34072 2.12989 5.27809C2.04672 5.26244 1.94692 5.21547 1.88038 5.1685C1.33146 4.65187 0.799167 4.13524 0.250244 3.63426C0.0839032 3.4777 0.0839032 3.3368 0.250244 3.18025C1.06531 2.41312 1.89701 1.63034 2.71208 0.863221C2.87842 0.706665 3.02813 0.706665 3.19447 0.863221C3.72676 1.3642 4.27568 1.88083 4.80797 2.38181C4.97431 2.53837 4.94105 2.74189 4.99095 2.92976C5.05748 3.27418 5.10739 3.63426 5.17392 3.97868C5.19056 4.0413 5.20719 4.10393 5.25709 4.13524C6.37157 5.18416 7.48606 6.23308 8.61717 7.29766C8.66707 7.2507 8.71698 7.21939 8.75024 7.17242C9.79819 6.18612 10.8295 5.19982 11.8774 4.22917C12.0771 4.0413 12.0604 3.83778 12.1103 3.6186C12.1769 3.28983 12.2268 2.94541 12.2933 2.61665C12.3099 2.52271 12.3598 2.42878 12.4264 2.36616C12.9587 1.86518 13.4909 1.3642 14.0232 0.863221C14.2062 0.691009 14.3393 0.691009 14.5223 0.863221C15.3373 1.63034 16.1524 2.39747 16.9675 3.16459C17.1504 3.3368 17.1504 3.46205 16.9675 3.63426C16.4352 4.13524 15.9029 4.63621 15.3872 5.13719C15.2043 5.3094 14.9714 5.29375 14.7551 5.32506C14.3892 5.38768 14.0066 5.43465 13.6407 5.49727C13.5908 5.51293 13.5409 5.52858 13.5076 5.55989C12.3931 6.60882 11.2953 7.64209 10.1808 8.69101C10.1808 8.69101 10.1641 8.70667 10.1641 8.72232C10.1808 8.75363 10.1641 8.76929 10.1475 8.76929ZM12.7757 3.21156C12.7258 3.52467 12.6759 3.85344 12.5927 4.16655C12.5594 4.27614 12.5095 4.40138 12.4264 4.47966C11.262 5.5912 10.0976 6.6871 8.93322 7.78299C8.70034 8.00216 8.5839 8.00216 8.35103 7.78299C7.18664 6.6871 6.03889 5.60686 4.89114 4.54228C4.74144 4.40138 4.65827 4.24483 4.625 4.0413C4.59173 3.7595 4.52519 3.4777 4.47529 3.22721C3.8931 3.7595 3.32754 4.30745 2.74535 4.83974C2.96159 4.87105 3.19447 4.90236 3.42735 4.94933C3.64359 4.99629 3.87647 4.96498 4.07608 5.13719C5.25709 6.26439 6.45474 7.37594 7.63576 8.50314C7.81874 8.67535 7.83537 8.81625 7.63576 8.98847C6.45474 10.1 5.25709 11.2272 4.05944 12.3388C3.99291 12.4014 3.8931 12.4483 3.7933 12.464C3.44398 12.5266 3.07803 12.5892 2.74535 12.6362C3.32754 13.1842 3.8931 13.7164 4.47529 14.2644C4.50856 14.0609 4.54183 13.8417 4.59173 13.6225C4.64163 13.419 4.60837 13.1998 4.77471 13.0276C5.97236 11.9004 7.17001 10.7732 8.36766 9.646C8.55064 9.47379 8.68371 9.47379 8.86668 9.646C10.0643 10.7732 11.262 11.8847 12.443 13.0119C12.5095 13.0746 12.5594 13.1842 12.5761 13.2781C12.6426 13.6069 12.7091 13.9356 12.7591 14.2331C13.3246 13.7008 13.9068 13.1528 14.4724 12.6206C14.2727 12.5892 14.0399 12.5736 13.807 12.511C13.5908 12.464 13.3579 12.4953 13.1749 12.3231C11.9939 11.2116 10.8129 10.1 9.61521 8.97281C9.43224 8.8006 9.43224 8.67535 9.61521 8.50314C10.8129 7.37594 11.9939 6.24874 13.1915 5.13719C13.2581 5.07457 13.3745 5.0276 13.4577 5.01195C13.807 4.94933 14.1563 4.8867 14.489 4.83974C13.9401 4.29179 13.3579 3.7595 12.7757 3.21156ZM0.865704 14.0609C1.58097 14.7341 2.2796 15.3916 2.96159 16.0335C3.37745 15.6421 3.80993 15.2507 4.20915 14.875C3.51052 14.2174 2.81189 13.5442 2.09662 12.8867C1.69741 13.2624 1.28155 13.6695 0.865704 14.0609ZM0.865704 3.39942C1.29819 3.80647 1.71404 4.19786 2.12989 4.58925C2.82852 3.93171 3.52715 3.27418 4.20915 2.61665C3.7933 2.22526 3.37745 1.81821 2.94496 1.42682C2.26296 2.08436 1.5477 2.74189 0.865704 3.39942ZM15.1377 4.58925C15.5702 4.19786 15.9861 3.79081 16.3853 3.41508C15.6866 2.75755 14.988 2.10001 14.306 1.45813C13.8902 1.84952 13.4577 2.24091 13.0418 2.6323C13.7405 3.27418 14.4391 3.93171 15.1377 4.58925ZM16.4019 14.0765C15.9861 13.6695 15.5536 13.2781 15.1544 12.9024C14.4557 13.5599 13.7405 14.2331 13.0585 14.875C13.4577 15.2507 13.8902 15.6577 14.306 16.0491C15.0046 15.3916 15.7033 14.7341 16.4019 14.0765Z" fill="#2A66FF"/>
</svg>
