<svg width="17" height="24" viewBox="0 0 17 24" fill="none" xmlns="http://www.w3.org/2000/svg">
<g clip-path="url(#clip0_60_1614)">
<path d="M16.2313 14.8391C16.3386 15.3312 16.4816 15.8044 16.5174 16.2776C16.571 16.8265 16.5352 17.3754 16.5352 17.9243C16.5352 18.4543 16.5531 19.0032 16.4995 19.5331C16.3743 20.5931 15.7844 21.2366 14.8191 21.5205C14.7834 21.5205 14.7655 21.5394 14.7119 21.5394C14.7119 22.0315 14.7119 22.5426 14.7119 23.0347C14.7119 23.6593 14.3901 24 13.8002 24C13.5499 24 13.2818 24 13.0315 24C12.5489 24 12.2093 23.6214 12.2093 23.1293C12.2093 22.6183 12.2093 22.1073 12.2093 21.5773C9.7245 21.5773 7.2755 21.5773 4.79075 21.5773C4.79075 21.6341 4.77287 21.7098 4.77287 21.7666C4.77287 22.2208 4.77287 22.6561 4.77287 23.1104C4.77287 23.6214 4.43323 24 3.95058 24C3.66456 24 3.37855 24 3.09253 24C2.62776 24 2.27024 23.6214 2.27024 23.1293C2.27024 22.5994 2.27024 22.0883 2.27024 21.5773C2.01998 21.4637 1.76972 21.388 1.5552 21.2555C0.840168 20.8202 0.48265 20.1388 0.464774 19.2681C0.446898 18.3028 0.429022 17.3375 0.48265 16.3912C0.500526 15.9558 0.661409 15.5205 0.750789 15.0852C0.768665 15.0095 0.804416 14.9527 0.840168 14.877C0.178759 14.6877 0 14.4416 0 13.7603C0 13.5331 0 13.2871 0.0715037 13.0599C0.232387 12.4921 0.715037 12.1514 1.30494 12.1325C1.64458 12.1325 2.0021 12.1325 2.34175 12.1325C2.41325 12.1325 2.5205 12.0568 2.55626 11.9811C3.23554 10.4858 4.34385 9.74763 5.91693 9.72871C7.68665 9.72871 9.45636 9.72871 11.2261 9.72871C12.7455 9.72871 13.7823 10.5426 14.4437 11.9432C14.5152 12.0946 14.5868 12.1325 14.7298 12.1325C15.1409 12.1325 15.5699 12.1136 15.9811 12.1703C16.5352 12.2461 16.9642 12.7571 17.0179 13.3438C17.0358 13.571 17.0358 13.7981 17.0179 14.0252C16.9642 14.4795 16.6604 14.7634 16.2313 14.8391ZM8.47319 19.3628C10.4395 19.3628 12.4059 19.3628 14.3722 19.3628C15.123 19.3628 15.7308 18.8139 15.8023 18.0189C15.8381 17.5079 15.8381 16.9968 15.8381 16.4669C15.8202 15.5773 15.4984 14.858 14.837 14.3091C14.7119 14.2145 14.6225 14.1956 14.4795 14.2524C13.9432 14.4795 13.3891 14.5931 12.7992 14.5931C10.0641 14.5741 7.32913 14.5741 4.59411 14.5931C3.8612 14.5931 3.16404 14.5363 2.46688 14.2524C2.39537 14.2145 2.27024 14.2334 2.21661 14.2902C1.71609 14.6688 1.32282 15.1609 1.23344 15.8233C1.14406 16.5047 1.14406 17.1861 1.16193 17.8675C1.16193 18.8328 1.96635 19.4006 2.71714 19.3817C4.62986 19.3438 6.56046 19.3628 8.47319 19.3628ZM8.49106 13.836C9.97476 13.836 11.4585 13.836 12.9422 13.836C13.1388 13.836 13.3176 13.817 13.5142 13.7792C14.0505 13.6845 14.0505 13.6656 13.9968 13.0978C13.8538 11.6972 12.6562 10.5047 11.3155 10.5047C9.45636 10.4858 7.57939 10.4858 5.72029 10.5047C4.34385 10.5237 3.05678 11.5836 2.9674 13.4385C2.9674 13.571 3.00315 13.6467 3.12829 13.6656C3.43218 13.7224 3.71819 13.817 4.02208 13.817C5.50578 13.836 6.98948 13.836 8.49106 13.836ZM15.7844 19.571C15.3375 19.9495 14.8549 20.1199 14.3007 20.1199C10.4395 20.1199 6.56046 20.1199 2.69926 20.1199C2.53838 20.1199 2.3775 20.1388 2.23449 20.082C1.87697 19.9495 1.53733 19.7981 1.19769 19.6656C1.19769 19.6278 1.19769 19.6656 1.19769 19.6845C1.39432 20.4038 1.94848 20.8391 2.66351 20.8391C6.54259 20.8391 10.4395 20.8391 14.3186 20.8391C14.3544 20.8391 14.408 20.8391 14.4437 20.8391C15.1052 20.7823 15.6772 20.2524 15.7844 19.571ZM12.9243 21.5773C12.9243 22.0883 12.9243 22.5804 12.9243 23.0726C12.9243 23.205 12.9779 23.2618 13.0852 23.2618C13.3354 23.2618 13.6036 23.2618 13.8538 23.2618C13.9075 23.2618 14.0147 23.1861 14.0147 23.1293C14.0326 22.6183 14.0147 22.1073 14.0147 21.5962C13.6393 21.5773 13.2997 21.5773 12.9243 21.5773ZM4.07571 21.5773C3.70032 21.5773 3.3428 21.5773 2.9674 21.5773C2.9674 22.0883 2.9674 22.5804 2.9674 23.0915C2.9674 23.1483 3.07466 23.2429 3.12829 23.2429C3.37855 23.2618 3.64669 23.2429 3.89695 23.2429C4.02208 23.2429 4.05783 23.1861 4.05783 23.0536C4.05783 22.5804 4.07571 22.0883 4.07571 21.5773ZM14.694 12.9085C14.6583 13.1546 14.7119 13.3249 14.9085 13.4574C15.1409 13.6088 15.3375 13.817 15.5521 13.9874C15.6057 14.0252 15.6593 14.0631 15.7308 14.0631C16.285 14.1199 16.3028 14.1009 16.285 13.5331C16.285 13.5142 16.285 13.4953 16.285 13.4953C16.2671 13.1924 16.0883 12.9464 15.8023 12.9274C15.4448 12.8896 15.0694 12.9085 14.694 12.9085ZM2.28812 12.9085C2.03785 12.9085 1.82334 12.9085 1.59096 12.9085C0.822292 12.9085 0.679285 13.0789 0.697161 13.8738V13.8927C0.679285 14.0252 0.750789 14.0631 0.858044 14.082C1.14406 14.1009 1.4122 14.082 1.60883 13.817C1.71609 13.6845 1.87697 13.571 2.01998 13.4763C2.25237 13.3628 2.30599 13.1735 2.28812 12.9085Z" fill="#2A66FF"/>
<path d="M8.49095 9.00946C6.98937 9.00946 5.73806 7.62776 5.80956 6.03785C5.82744 5.54574 6.02407 5.11041 6.22071 4.67508C6.75698 3.57728 7.45415 2.59306 8.18706 1.62776C8.38369 1.3817 8.61608 1.3817 8.79484 1.62776C9.59926 2.66877 10.35 3.76656 10.9221 4.97791C11.798 6.85173 10.3858 9.00946 8.49095 9.00946ZM8.49095 2.42271C7.77591 3.35015 7.13238 4.2776 6.70336 5.33754C6.57823 5.64038 6.48885 5.98107 6.5246 6.30284C6.63185 7.5899 7.68653 8.42271 8.88422 8.19558C10.1177 7.94952 10.7433 6.49211 10.3679 5.52681C9.92102 4.39116 9.22386 3.42586 8.49095 2.42271Z" fill="#2A66FF"/>
<path d="M11.4584 0.984226C11.226 1.30599 11.0115 1.60883 10.8148 1.89274C10.7433 2.00631 10.6718 2.11987 10.6003 2.21451C10.4394 2.44164 10.2607 2.49842 10.0819 2.36593C9.90315 2.23344 9.8674 2.00631 10.0283 1.77918C10.3143 1.34385 10.6182 0.927444 10.9221 0.51104C10.9936 0.397476 11.083 0.302838 11.1545 0.208201C11.369 -0.056783 11.6014 -0.0757105 11.798 0.208201C12.3879 1.07886 12.9957 1.94953 13.5498 2.85804C13.8001 3.27445 13.9967 3.78549 14.104 4.2776C14.3543 5.43218 13.7107 6.70031 12.6918 7.24921C12.513 7.34385 12.3343 7.41956 12.1376 7.47634C11.8695 7.57098 11.6729 7.47634 11.6192 7.26814C11.5477 7.04101 11.6729 6.85173 11.9589 6.77602C12.7097 6.54889 13.1923 6.03785 13.4068 5.2429C13.4962 4.88328 13.4962 4.54259 13.3711 4.18296C12.9242 2.99054 12.2091 1.98738 11.4584 0.984226Z" fill="#2A66FF"/>
<path d="M5.50584 0.984224C4.7908 1.94952 4.12939 2.8959 3.68249 4.01262C3.21772 5.14826 3.96851 6.43533 4.95168 6.71924C5.00531 6.73817 5.05894 6.75709 5.13044 6.77602C5.34495 6.85173 5.45221 7.04101 5.39858 7.24921C5.34495 7.45741 5.1662 7.57098 4.95168 7.51419C4.02214 7.26814 3.3786 6.68139 3.02109 5.75394C2.73507 5.01577 2.7887 4.2776 3.11046 3.55836C3.61099 2.42271 4.30815 1.43848 5.02319 0.454256C5.09469 0.359619 5.1662 0.246054 5.25558 0.170344C5.41646 -2.93553e-06 5.63097 -0.0189304 5.7561 0.170344C6.18512 0.757095 6.61415 1.34385 7.02529 1.94952C7.13255 2.11987 7.06104 2.32807 6.91804 2.44164C6.75715 2.5552 6.56052 2.51735 6.43539 2.32807C6.18512 1.96845 5.93486 1.60883 5.6846 1.24921C5.63097 1.13564 5.57734 1.07886 5.50584 0.984224Z" fill="#2A66FF"/>
<path d="M8.49103 15.7666C9.20607 15.7666 9.90323 15.7666 10.6183 15.7666C11.0294 15.7666 11.1724 15.9558 11.0652 16.3722C10.94 16.9401 10.797 17.5079 10.6719 18.0757C10.6004 18.3596 10.511 18.4543 10.2429 18.4543C9.08093 18.4543 7.919 18.4543 6.75706 18.4543C6.48893 18.4543 6.39955 18.3785 6.32804 18.1136C6.18504 17.5268 6.0599 16.959 5.9169 16.3722C5.82752 15.9748 5.97052 15.7855 6.34592 15.7855C7.06096 15.7666 7.77599 15.7666 8.49103 15.7666ZM10.2965 16.5237C9.08093 16.5237 7.88325 16.5237 6.68556 16.5237C6.77494 16.9211 6.86432 17.2997 6.9537 17.6593C7.9905 17.6593 9.00943 17.6593 10.0284 17.6593C10.1177 17.2808 10.2071 16.9022 10.2965 16.5237Z" fill="#2A66FF"/>
<path d="M13.4784 18.4353C12.7812 18.4353 12.2271 17.8486 12.2271 17.1293C12.2271 16.3912 12.7991 15.7855 13.4784 15.7666C14.1577 15.7666 14.7297 16.3722 14.7476 17.0915C14.7297 17.8297 14.1755 18.4353 13.4784 18.4353ZM13.4605 17.6782C13.7644 17.6782 14.0146 17.4322 14.0325 17.1104C14.0504 16.7886 13.7823 16.5047 13.4784 16.5047C13.1745 16.5047 12.9242 16.7697 12.9242 17.0915C12.9063 17.4133 13.1566 17.6782 13.4605 17.6782Z" fill="#2A66FF"/>
<path d="M3.50362 18.4353C2.82434 18.4353 2.25231 17.8297 2.27018 17.0915C2.27018 16.3722 2.86009 15.7666 3.5215 15.7666C4.21866 15.7666 4.79069 16.3912 4.77281 17.1483C4.75494 17.8675 4.18291 18.4353 3.50362 18.4353ZM3.5215 17.6782C3.82539 17.6782 4.07565 17.4322 4.07565 17.1104C4.07565 16.7886 3.82539 16.5047 3.5215 16.5237C3.21761 16.5237 2.96734 16.8076 2.98522 17.1104C2.96734 17.4322 3.21761 17.6782 3.5215 17.6782Z" fill="#2A66FF"/>
</g>
<defs>
<clipPath id="clip0_60_1614">
<rect width="17" height="24" fill="white"/>
</clipPath>
</defs>
</svg>
