<svg width="17" height="17" viewBox="0 0 17 17" fill="none" xmlns="http://www.w3.org/2000/svg">
<g clip-path="url(#clip0_60_1346)">
<path d="M17 8.49832C17.0034 13.181 13.181 17.0034 8.49831 17.0034C3.82576 17 0.00337592 13.181 2.2335e-06 8.51181C-0.00337145 3.81901 3.81564 -0.00337145 8.50844 2.23153e-06C13.1844 0.00337592 16.9966 3.81901 17 8.49832ZM8.51181 0.806313C4.26434 0.802939 0.816434 4.24072 0.806313 8.49157C0.796192 12.7154 4.24747 16.1869 8.4612 16.1937C12.7255 16.2004 16.1869 12.7627 16.1937 8.51518C16.1971 4.26771 12.7525 0.809687 8.51181 0.806313Z" fill="#2A66FF"/>
<path d="M8.49497 14.5709C5.16177 14.5676 2.42571 11.8383 2.42908 8.51518C2.43245 5.16511 5.16514 2.42568 8.50509 2.42905C11.845 2.43243 14.5777 5.17861 14.571 8.5253C14.5676 11.8484 11.8282 14.5743 8.49497 14.5709ZM8.49834 3.23536C8.23182 3.22524 7.97205 3.27247 7.7089 3.29946C7.59082 3.31296 7.57395 3.36694 7.59082 3.46815C7.66504 3.89323 7.73926 4.31832 7.80673 4.74678C7.87421 5.19548 7.98891 5.63743 7.9653 6.09962C7.93831 6.64616 7.50985 7.1286 6.97006 7.21969C6.58883 7.28379 6.25147 7.15559 5.92084 6.9869C5.29671 6.66978 4.67258 6.3459 4.05182 6.01865C3.94724 5.96468 3.90338 5.97142 3.8494 6.07938C3.60987 6.5517 3.43781 7.04763 3.3366 7.57055C3.31299 7.69875 3.3501 7.73586 3.46818 7.75273C3.94049 7.81683 4.41281 7.88768 4.88175 7.9619C5.2731 8.02262 5.67457 8.05636 6.05242 8.19806C6.75414 8.45783 7.15561 9.30462 6.69679 10.003C6.57534 10.1885 6.43027 10.3505 6.27508 10.5057C5.77578 10.9982 5.27647 11.4941 4.77042 11.9833C4.68608 12.0643 4.68608 12.1115 4.77042 12.1959C5.15164 12.5737 5.58348 12.8841 6.05242 13.1439C6.17724 13.2114 6.2211 13.1776 6.27508 13.0663C6.5551 12.4961 6.83849 11.9294 7.12188 11.3659C7.23658 11.1365 7.35466 10.9071 7.5166 10.7013C8.03952 10.0367 8.96391 10.0401 9.48683 10.7047C9.61503 10.87 9.71961 11.0488 9.81408 11.2344C10.1245 11.8518 10.4348 12.4658 10.7385 13.0865C10.7891 13.1911 10.8363 13.208 10.9409 13.1506C11.4132 12.8942 11.8417 12.5838 12.2263 12.206C12.3106 12.125 12.3308 12.0744 12.233 11.98C11.7303 11.4975 11.2378 11.005 10.7385 10.5158C10.5867 10.3673 10.4416 10.2088 10.3235 10.03C10.1278 9.73308 10.0502 9.40921 10.1514 9.06847C10.3201 8.49494 10.7418 8.19806 11.3086 8.10022C12.0373 7.97877 12.7728 7.87081 13.5049 7.75948C13.6365 7.73923 13.6972 7.70887 13.6635 7.55368C13.5521 7.04088 13.3902 6.54832 13.1507 6.07938C13.0933 5.96805 13.0461 5.97142 12.9482 6.0254C12.5333 6.24807 12.1149 6.46398 11.6932 6.67652C11.3525 6.84858 11.0252 7.04763 10.6609 7.16571C9.9389 7.39512 9.22706 7.01052 9.06849 6.2953C8.99765 5.98154 9.04488 5.66779 9.09548 5.35741C9.20007 4.72653 9.30465 4.09565 9.41261 3.46477C9.42948 3.36019 9.40586 3.31296 9.29116 3.29946C9.02464 3.27247 8.76486 3.22862 8.49834 3.23536ZM8.49159 13.7646C8.97403 13.768 9.4396 13.6735 9.90179 13.5521C10.0334 13.5184 10.0401 13.4711 9.98276 13.3564C9.67238 12.7458 9.36875 12.1351 9.05837 11.5245C8.99427 11.3963 8.9133 11.2715 8.83233 11.15C8.75137 11.0286 8.62991 10.9847 8.48147 10.9881C8.22507 10.9915 8.12386 11.1804 8.0294 11.3626C7.68191 12.0339 7.34791 12.7154 7.0038 13.3902C6.95994 13.4779 6.96669 13.5116 7.0679 13.5386C7.53347 13.6769 8.00578 13.7646 8.49159 13.7646ZM3.23876 8.67712C3.28937 9.66898 3.56264 10.536 4.06194 11.3322C4.12942 11.4402 4.1699 11.4537 4.26774 11.3558C4.75355 10.8633 5.24948 10.3808 5.74204 9.89502C5.84325 9.79718 5.94109 9.69597 6.01531 9.57452C6.16038 9.34173 6.07603 9.06509 5.82301 8.96051C5.76228 8.93352 5.69481 8.91328 5.63071 8.90315C4.90199 8.76483 4.1699 8.67037 3.43781 8.55904C3.23202 8.52868 3.23202 8.5253 3.23876 8.67712ZM13.7613 8.7176C13.741 8.6535 13.8355 8.51181 13.6331 8.54217C13.0461 8.63663 12.4557 8.7176 11.8687 8.81207C11.646 8.8458 11.4233 8.86942 11.2108 8.94701C10.9173 9.05497 10.8262 9.34848 11.005 9.60151C11.0725 9.69597 11.1501 9.78706 11.2344 9.8714C11.7337 10.3673 12.2364 10.8565 12.7323 11.3558C12.8268 11.4503 12.8673 11.4469 12.9381 11.3322C13.4408 10.536 13.7107 9.66898 13.7613 8.7176ZM9.82757 5.86684C9.82757 6.05576 9.83769 6.22445 10.0064 6.35265C10.2122 6.50447 10.4078 6.4235 10.59 6.33241C11.2411 6.00516 11.8855 5.66442 12.5333 5.3338C12.621 5.28994 12.6142 5.2562 12.5603 5.18873C12.3342 4.91546 12.0846 4.66581 11.8113 4.43977C11.3693 4.07879 10.8802 3.7954 10.3471 3.59635C10.283 3.57273 10.2088 3.51201 10.1886 3.64695C10.0705 4.38579 9.94565 5.128 9.82757 5.86684ZM7.15224 5.74201C7.0544 5.1415 6.93295 4.38916 6.8115 3.63683C6.79463 3.53225 6.7339 3.56599 6.67655 3.58623C5.7859 3.9236 5.04031 4.46001 4.43305 5.19548C4.38244 5.25958 4.3757 5.29331 4.45667 5.33042C4.57474 5.3844 4.68608 5.4485 4.80078 5.50585C5.37093 5.79599 5.92084 6.11986 6.50787 6.37289C6.90933 6.54158 7.18598 6.32903 7.15224 5.74201Z" fill="#2A66FF"/>
<path d="M8.90316 8.49831C8.90316 8.72098 8.7176 8.90653 8.49832 8.90315C8.27903 8.89978 8.09347 8.70748 8.09685 8.49156C8.10022 8.27902 8.2824 8.10022 8.49832 8.09684C8.72098 8.09684 8.90316 8.27565 8.90316 8.49831Z" fill="#2A66FF"/>
</g>
<defs>
<clipPath id="clip0_60_1346">
<rect width="17" height="17" fill="white"/>
</clipPath>
</defs>
</svg>
